<svg width="167" height="48" viewBox="0 0 167 48" fill="none" xmlns="http://www.w3.org/2000/svg">
<rect width="167" height="48" fill="#195BFF"/>
<path d="M43.328 16.624V22.368H42.144V16.88H40.176V26.32C38.144 25.184 37.456 22.784 37.456 20.24V17.92H35.408V20.4C35.408 22.896 34.624 25.552 32.416 26.864L33.728 28.416C35.04 27.616 35.904 26.272 36.416 24.656C36.896 26.096 37.712 27.28 38.96 27.984L40.176 26.352V30.704H42.144V24.064H43.328V31.36H45.328V16.624H43.328ZM60.123 17.568H57.003V16.528H54.891V17.568H51.755V18.96H60.123V17.568ZM54.347 21.168C54.347 20.752 54.939 20.544 55.947 20.544C56.955 20.544 57.531 20.752 57.531 21.168C57.531 21.6 56.955 21.824 55.947 21.824C54.939 21.824 54.347 21.6 54.347 21.168ZM60.491 23.344C59.371 23.472 58.187 23.568 57.003 23.632V23.04C58.571 22.848 59.531 22.176 59.531 21.168C59.531 19.968 58.139 19.248 55.947 19.248C53.755 19.248 52.347 19.968 52.347 21.168C52.347 22.176 53.307 22.848 54.891 23.04V23.712C53.627 23.744 52.443 23.744 51.387 23.744L51.595 25.184C54.139 25.184 57.547 25.152 60.635 24.608L60.491 23.344ZM55.451 29.168H63.243V25.84H53.339V27.232H61.163V27.872H53.355V31.264H63.755V29.872H55.451V29.168ZM63.243 20.112V16.624H61.131V25.312H63.243V21.84H65.099V20.112H63.243ZM72.9058 29.792C70.9378 29.792 69.9298 29.456 69.9298 28.688C69.9298 27.92 70.9378 27.568 72.9058 27.568C74.8738 27.568 75.8818 27.92 75.8818 28.688C75.8818 29.456 74.8738 29.792 72.9058 29.792ZM72.9058 25.968C69.7218 25.968 67.8018 26.944 67.8018 28.688C67.8018 30.416 69.7218 31.392 72.9058 31.392C76.0898 31.392 78.0258 30.416 78.0258 28.688C78.0258 26.944 76.0898 25.968 72.9058 25.968ZM74.0098 23.568V22.352H78.1058V20.672H70.0098V18.944H78.0258V17.264H67.9138V22.352H71.8978V23.568H66.2978V25.248H79.6258V23.568H74.0098ZM86.5648 24.704C89.0928 24.4 90.8688 23.392 91.8128 22.064C92.7568 23.392 94.5328 24.4 97.0288 24.704L97.7808 23.04C94.7568 22.704 93.1568 21.248 92.9008 20H97.2688V18.32H92.8528V16.672H90.7408V18.32H86.3568V20H90.7088C90.4688 21.28 88.9008 22.704 85.8288 23.04L86.5648 24.704ZM98.4848 25.456H85.1728V27.168H90.7408V31.408H92.8528V27.168H98.4848V25.456ZM100.548 18.144V19.856H105.364C104.98 23.12 103.156 25.456 99.7315 27.216L100.916 28.832C105.812 26.352 107.492 22.56 107.492 18.144H100.548ZM113.476 22.256H111.412V16.624H109.3V31.344H111.412V24H113.476V22.256Z" fill="white"/>
<path d="M137.743 15.1925L137.716 15.1709C137.692 15.147 137.665 15.1253 137.638 15.106L137.561 15.0727L137.518 15.0511C137.49 15.0398 137.461 15.0307 137.432 15.0236C137.418 15.0205 137.404 15.0166 137.391 15.0118C137.351 15.0039 137.31 14.9999 137.27 15H137.248C137.207 15 137.165 15.004 137.125 15.0118L137.084 15.0255C137.054 15.031 137.025 15.0396 136.997 15.0511C136.982 15.0581 136.967 15.066 136.952 15.0746C136.927 15.0858 136.903 15.0989 136.88 15.1139C136.841 15.1383 136.806 15.1673 136.774 15.2003L120.204 31.8182C120.14 31.882 120.089 31.9579 120.054 32.0416C120.019 32.1252 120 32.215 120 32.3057C119.999 32.4889 120.071 32.665 120.199 32.7952C120.328 32.9254 120.502 32.9991 120.685 33C120.868 33.0009 121.043 32.929 121.173 32.8001L127.652 26.2998C129.132 27.5623 131.043 28.1988 132.981 28.0751C134.92 27.9513 136.735 27.077 138.044 25.6365C139.353 24.196 140.053 22.3019 139.997 20.3535C139.941 18.4051 139.133 16.5547 137.743 15.1925ZM136.765 24.8545C135.7 25.9222 134.28 26.5592 132.777 26.6439C131.274 26.7287 129.792 26.2553 128.615 25.314L137.226 16.6732C138.165 17.8548 138.638 19.3415 138.555 20.8503C138.471 22.359 137.838 23.7843 136.774 24.8545H136.765Z" fill="white"/>
</svg>
