<svg width="169" height="50" viewBox="0 0 169 50" fill="none" xmlns="http://www.w3.org/2000/svg">
<path d="M1 1H168V49H1V1Z" fill="white"/>
<path d="M44.328 17.624V23.368H43.144V17.88H41.176V27.32C39.144 26.184 38.456 23.784 38.456 21.24V18.92H36.408V21.4C36.408 23.896 35.624 26.552 33.416 27.864L34.728 29.416C36.04 28.616 36.904 27.272 37.416 25.656C37.896 27.096 38.712 28.28 39.96 28.984L41.176 27.352V31.704H43.144V25.064H44.328V32.36H46.328V17.624H44.328ZM61.123 18.568H58.003V17.528H55.891V18.568H52.755V19.96H61.123V18.568ZM55.347 22.168C55.347 21.752 55.939 21.544 56.947 21.544C57.955 21.544 58.531 21.752 58.531 22.168C58.531 22.6 57.955 22.824 56.947 22.824C55.939 22.824 55.347 22.6 55.347 22.168ZM61.491 24.344C60.371 24.472 59.187 24.568 58.003 24.632V24.04C59.571 23.848 60.531 23.176 60.531 22.168C60.531 20.968 59.139 20.248 56.947 20.248C54.755 20.248 53.347 20.968 53.347 22.168C53.347 23.176 54.307 23.848 55.891 24.04V24.712C54.627 24.744 53.443 24.744 52.387 24.744L52.595 26.184C55.139 26.184 58.547 26.152 61.635 25.608L61.491 24.344ZM56.451 30.168H64.243V26.84H54.339V28.232H62.163V28.872H54.355V32.264H64.755V30.872H56.451V30.168ZM64.243 21.112V17.624H62.131V26.312H64.243V22.84H66.099V21.112H64.243ZM73.9058 30.792C71.9378 30.792 70.9298 30.456 70.9298 29.688C70.9298 28.92 71.9378 28.568 73.9058 28.568C75.8738 28.568 76.8818 28.92 76.8818 29.688C76.8818 30.456 75.8738 30.792 73.9058 30.792ZM73.9058 26.968C70.7218 26.968 68.8018 27.944 68.8018 29.688C68.8018 31.416 70.7218 32.392 73.9058 32.392C77.0898 32.392 79.0258 31.416 79.0258 29.688C79.0258 27.944 77.0898 26.968 73.9058 26.968ZM75.0098 24.568V23.352H79.1058V21.672H71.0098V19.944H79.0258V18.264H68.9138V23.352H72.8978V24.568H67.2978V26.248H80.6258V24.568H75.0098ZM87.5648 25.704C90.0928 25.4 91.8688 24.392 92.8128 23.064C93.7568 24.392 95.5328 25.4 98.0288 25.704L98.7808 24.04C95.7568 23.704 94.1568 22.248 93.9008 21H98.2688V19.32H93.8528V17.672H91.7408V19.32H87.3568V21H91.7088C91.4688 22.28 89.9008 23.704 86.8288 24.04L87.5648 25.704ZM99.4848 26.456H86.1728V28.168H91.7408V32.408H93.8528V28.168H99.4848V26.456ZM101.548 19.144V20.856H106.364C105.98 24.12 104.156 26.456 100.732 28.216L101.916 29.832C106.812 27.352 108.492 23.56 108.492 19.144H101.548ZM114.476 23.256H112.412V17.624H110.3V32.344H112.412V25H114.476V23.256Z" fill="#195BFF"/>
<path d="M138.743 16.1925L138.716 16.1709C138.692 16.147 138.665 16.1253 138.638 16.106L138.561 16.0727L138.518 16.0511C138.49 16.0398 138.461 16.0307 138.432 16.0236C138.418 16.0205 138.404 16.0166 138.391 16.0118C138.351 16.0039 138.31 15.9999 138.27 16H138.248C138.207 16 138.165 16.004 138.125 16.0118L138.084 16.0255C138.054 16.031 138.025 16.0396 137.997 16.0511C137.982 16.0581 137.967 16.066 137.952 16.0746C137.927 16.0858 137.903 16.0989 137.88 16.1139C137.841 16.1383 137.806 16.1673 137.774 16.2003L121.204 32.8182C121.14 32.882 121.089 32.9579 121.054 33.0416C121.019 33.1252 121 33.215 121 33.3057C120.999 33.4889 121.071 33.665 121.199 33.7952C121.328 33.9254 121.502 33.9991 121.685 34C121.868 34.0009 122.043 33.929 122.173 33.8001L128.652 27.2998C130.132 28.5623 132.043 29.1988 133.981 29.0751C135.92 28.9513 137.735 28.077 139.044 26.6365C140.353 25.196 141.053 23.3019 140.997 21.3535C140.941 19.4051 140.133 17.5547 138.743 16.1925ZM137.765 25.8545C136.7 26.9222 135.28 27.5592 133.777 27.6439C132.274 27.7287 130.792 27.2553 129.615 26.314L138.226 17.6732C139.165 18.8548 139.638 20.3415 139.555 21.8503C139.471 23.359 138.838 24.7843 137.774 25.8545H137.765Z" fill="#195BFF"/>
<path d="M1 1V0.5C0.723858 0.5 0.5 0.723858 0.5 1H1ZM168 1H168.5C168.5 0.723858 168.276 0.5 168 0.5V1ZM168 49V49.5C168.276 49.5 168.5 49.2761 168.5 49H168ZM1 49H0.5C0.5 49.2761 0.723858 49.5 1 49.5V49ZM1 1.5H168V0.5H1V1.5ZM167.5 1V49H168.5V1H167.5ZM168 48.5H1V49.5H168V48.5ZM1.5 49V1H0.5V49H1.5Z" fill="#195BFF"/>
</svg>
