<svg width="29" height="36" viewBox="0 0 29 36" fill="none" xmlns="http://www.w3.org/2000/svg">
<path d="M12.3623 24.8486C9.91725 24.8486 7.52713 24.1199 5.49417 22.7547C3.4612 21.3895 1.8767 19.4491 0.941027 17.1789C0.00535637 14.9086 -0.239458 12.4105 0.237543 10.0004C0.714544 7.59036 1.89194 5.37657 3.62083 3.639C5.34972 1.90143 7.55247 0.718129 9.95052 0.238735C12.3486 -0.240659 14.8342 0.00538325 17.0931 0.945749C19.352 1.88611 21.2827 3.47857 22.6411 5.52173C23.9995 7.5649 24.7245 9.96701 24.7245 12.4243C24.7202 15.7181 23.4164 18.8757 21.0989 21.2048C18.7815 23.5339 15.6396 24.8442 12.3623 24.8486ZM12.3623 1.91945C10.295 1.91945 8.27412 2.53555 6.55523 3.68984C4.83634 4.84413 3.49663 6.48476 2.70551 8.40427C1.91439 10.3238 1.7074 12.436 2.11071 14.4737C2.51402 16.5114 3.50951 18.3832 4.97131 19.8524C6.4331 21.3215 8.29554 22.322 10.3231 22.7273C12.3507 23.1326 14.4523 22.9246 16.3622 22.1295C18.2722 21.3344 19.9046 19.988 21.0531 18.2605C22.2017 16.533 22.8147 14.502 22.8147 12.4243C22.8111 9.63936 21.7087 6.96951 19.7493 5.00026C17.7898 3.031 15.1333 1.92308 12.3623 1.91945Z" fill="black"/>
<path d="M11.7539 25.3037C12.6339 26.196 13.6806 26.9049 14.8339 27.3895C15.9872 27.8742 17.2244 28.1251 18.4745 28.1279C19.7246 28.1308 20.9629 27.8854 22.1183 27.4059C23.2738 26.9264 24.3236 26.2222 25.2075 25.3339C26.0915 24.4455 26.7921 23.3904 27.2692 22.2292C27.7463 21.0679 27.9904 19.8234 27.9877 18.567C27.9849 17.3107 27.7352 16.0673 27.2529 14.9082C26.7707 13.7491 26.0654 12.6971 25.1775 11.8127L11.7539 25.3037Z" fill="#195BFF"/>
<path d="M25.8541 11.1354L25.8159 11.1053C25.7822 11.072 25.7457 11.0417 25.7068 11.0148L25.6004 10.9682L25.5404 10.938C25.5013 10.9223 25.4612 10.9095 25.4203 10.8996C25.4009 10.8954 25.3817 10.8899 25.363 10.8832C25.3073 10.8721 25.2506 10.8666 25.1938 10.8667H25.1638C25.1062 10.8667 25.0486 10.8722 24.992 10.8832L24.9347 10.9023C24.8935 10.91 24.8533 10.922 24.8146 10.938C24.7931 10.9479 24.7722 10.9589 24.7519 10.9709C24.7168 10.9865 24.683 11.0048 24.6509 11.0257C24.5971 11.0598 24.5476 11.1003 24.5036 11.1464L1.40515 34.3498C1.31557 34.4389 1.24434 34.5449 1.19552 34.6616C1.1467 34.7784 1.12125 34.9037 1.12062 35.0304C1.11934 35.2863 1.21923 35.5321 1.39833 35.7139C1.57742 35.8957 1.82104 35.9986 2.0756 35.9999C2.33015 36.0012 2.57479 35.9008 2.75569 35.7208L11.7866 26.6445C13.8499 28.4074 16.5137 29.2961 19.2163 29.1233C21.9189 28.9505 24.4492 27.7297 26.2736 25.7184C28.0979 23.707 29.0739 21.0623 28.9957 18.3417C28.9174 15.6212 27.7911 13.0375 25.8541 11.1354ZM24.4899 24.6264C23.0053 26.1172 21.0266 27.0066 18.9312 27.125C16.8358 27.2433 14.7704 26.5823 13.129 25.268L25.1338 13.2029C26.4424 14.8528 27.1014 16.9288 26.9851 19.0354C26.8689 21.142 25.9856 23.1321 24.5036 24.6264H24.4899Z" fill="black"/>
</svg>
