<svg width="280" height="160" viewBox="0 0 280 160" fill="none" xmlns="http://www.w3.org/2000/svg">
<rect x="1" y="1" width="278" height="158" stroke="black" stroke-linecap="round" stroke-linejoin="round"/>
<path d="M131.493 95.9375C124.625 95.9375 119.048 90.3327 119.048 83.4917C119.048 76.6231 124.625 71.0459 131.493 71.0459C138.362 71.0459 143.939 76.6231 143.939 83.4917C143.939 90.3327 138.362 95.9375 131.493 95.9375ZM131.493 72.9691C125.696 72.9691 120.971 77.6672 120.971 83.4917C120.971 89.3162 125.696 94.0143 131.493 94.0143C137.29 94.0143 142.016 89.2887 142.016 83.4917C142.016 77.6946 137.29 72.9691 131.493 72.9691Z" fill="black"/>
<path d="M141.648 65.1352L141.62 65.1626C141.593 65.1901 141.538 65.2176 141.51 65.245C141.483 65.2725 141.455 65.3 141.428 65.3275C141.428 65.3549 141.4 65.3549 141.4 65.3824C141.345 65.4374 141.345 65.4923 141.318 65.5198C141.318 65.5473 141.291 65.5473 141.291 65.5747C141.263 65.6297 141.263 65.6846 141.236 65.7396C141.236 65.7396 141.236 65.7396 141.236 65.7671C141.236 65.7671 141.236 65.7671 141.236 65.7945C141.236 65.8495 141.208 65.9044 141.236 65.9594C141.236 65.9868 141.236 65.9868 141.236 66.0143C141.236 66.0693 141.236 66.0967 141.263 66.1517C141.263 66.1792 141.291 66.2066 141.291 66.2341C141.291 66.2616 141.318 66.3165 141.318 66.344C141.345 66.399 141.373 66.4539 141.4 66.5089L160.248 93.461C160.55 93.9006 161.154 94.0105 161.594 93.7082C161.814 93.5434 161.951 93.3236 161.979 93.0763C162.034 92.8291 161.979 92.5818 161.814 92.362L154.451 81.8119C156.319 80.2184 157.583 78.048 158.022 75.6028C158.517 72.8279 157.885 70.053 156.291 67.7452C152.967 62.9647 146.401 61.8108 141.648 65.1352ZM154.698 68.8167C156.017 70.6849 156.511 72.9928 156.127 75.2456C155.769 77.1963 154.808 78.9272 153.352 80.191L143.571 66.1792C147.335 64.1461 152.17 65.2176 154.698 68.8167Z" fill="black"/>
</svg>
