<svg width="68" height="75" viewBox="0 0 68 75" fill="none" xmlns="http://www.w3.org/2000/svg">
<path d="M12.7536 45.2353C12.6689 45.2353 12.6266 45.2353 12.5419 45.2353C12.0761 45.193 11.6104 44.8966 11.3987 44.4309C11.3987 44.4309 11.3987 44.3885 11.3563 44.3885L1.06739 21.5242C-2.10821 14.2838 2.04124 5.39215 10.3401 1.66611C14.3202 -0.112224 18.6814 -0.493296 22.6191 0.64992C26.6416 1.79314 29.7325 4.37596 31.2991 7.93263L41.588 30.7969C41.7574 31.178 41.7574 31.6014 41.588 31.9825C41.461 32.3212 41.207 32.5753 40.8259 32.7446L13.3464 45.1083C13.304 45.1083 13.2617 45.1507 13.2194 45.1507C13.05 45.193 12.923 45.2353 12.7536 45.2353ZM28.2929 25.8007C26.1335 25.8007 23.974 26.2664 21.857 27.1979C15.5905 30.0348 12.1185 36.3013 13.6004 41.721L38.2007 30.6699C36.8458 28.6375 34.7287 27.1132 32.1036 26.3511C30.8757 26.0124 29.5631 25.8007 28.2929 25.8007ZM18.0039 2.93635C15.8445 2.93635 13.6851 3.40211 11.568 4.33361C4.70875 7.42453 1.23676 14.5379 3.81958 20.254L10.7636 35.7085C11.9491 31.0933 15.5058 26.8169 20.6291 24.5304C24.6092 22.7521 28.9703 22.371 32.9081 23.5142C33.8396 23.7683 34.7287 24.107 35.5332 24.5304L28.5892 9.11819C27.4037 6.366 24.9902 4.37596 21.8146 3.48679C20.5867 3.10572 19.2742 2.93635 18.0039 2.93635Z" fill="black"/>
<path d="M25.6253 74.9999C25.2442 74.9999 24.8632 74.8728 24.5668 74.5765C23.974 73.9837 23.974 73.0522 24.5668 72.4594L60.4299 36.5963C61.0227 36.0035 61.9542 36.0035 62.5046 36.5963C63.0974 37.1891 63.0974 38.1206 62.5046 38.7134L26.6838 74.5765C26.3875 74.8728 26.0064 74.9999 25.6253 74.9999Z" fill="black"/>
<path d="M51.0724 64.287C46.9229 64.287 42.7735 62.7204 39.5979 59.5448C39.0051 58.952 39.0051 58.0205 39.5979 57.4277L60.4298 36.5958C61.0226 36.003 61.9541 36.003 62.5046 36.5958C65.5531 39.6444 67.2468 43.7091 67.2468 48.0703C67.2468 52.3891 65.5531 56.4539 62.5046 59.5448C59.3713 62.7204 55.2218 64.287 51.0724 64.287ZM42.8158 58.4439C48.0238 62.5934 55.6453 62.2546 60.4298 57.4701C62.928 54.9719 64.3252 51.627 64.3252 48.1126C64.3252 45.0641 63.309 42.1849 61.446 39.8561L42.8158 58.4439Z" fill="black"/>
</svg>
