<svg width="29" height="29" viewBox="0 0 29 29" fill="none" xmlns="http://www.w3.org/2000/svg">
<path d="M14.2001 27.225C21.435 27.225 27.3001 21.3599 27.3001 14.125C27.3001 6.89006 21.435 1.02499 14.2001 1.02499C6.96517 1.02499 1.1001 6.89006 1.1001 14.125C1.1001 21.3599 6.96517 27.225 14.2001 27.225Z" fill="white"/>
<path d="M14.2 28.225C10.6 28.225 6.9 26.825 4.2 24.125C1.5 21.425 0 17.925 0 14.125C0 10.325 1.5 6.825 4.2 4.125C9.7 -1.375 18.8 -1.375 24.3 4.125C27 6.825 28.5 10.325 28.5 14.125C28.5 17.925 27 21.425 24.3 24.125C21.5 26.825 17.8 28.225 14.2 28.225ZM14.2 2.125C11.1 2.125 8 3.325 5.7 5.625C3.4 7.825 2.2 10.925 2.2 14.125C2.2 17.325 3.4 20.325 5.7 22.625C10.4 27.325 18 27.325 22.7 22.625C25 20.325 26.2 17.325 26.2 14.125C26.2 10.925 25 7.925 22.7 5.625C20.4 3.325 17.3 2.125 14.2 2.125Z" fill="black"/>
</svg>
