<svg width="175" height="42" viewBox="0 0 175 42" fill="none" xmlns="http://www.w3.org/2000/svg">
<path d="M1 1H174V41H1V1Z" fill="white"/>
<path d="M35.6424 24.7144C31.9766 24.7144 29 21.7378 29 18.072C29 14.4063 31.9766 11.4297 35.6424 11.4297C39.3081 11.4297 42.2847 14.4063 42.2847 18.072C42.2847 21.7378 39.3081 24.7144 35.6424 24.7144ZM35.6424 12.4561C32.5485 12.4561 30.0264 14.9781 30.0264 18.072C30.0264 21.166 32.5485 23.688 35.6424 23.688C38.7363 23.688 41.2583 21.166 41.2583 18.072C41.2583 14.9781 38.7363 12.4561 35.6424 12.4561Z" fill="#195BFF"/>
<path d="M35.3198 24.9642C37.314 26.9584 40.5399 26.9584 42.534 24.9642C44.5282 22.97 44.5282 19.7442 42.534 17.75L35.3198 24.9642Z" fill="#195BFF"/>
<path d="M42.9008 17.383L42.8862 17.3683C42.8715 17.3536 42.8422 17.339 42.8275 17.3243C42.7982 17.3096 42.7835 17.295 42.7542 17.295C42.7395 17.295 42.7395 17.2803 42.7249 17.2803C42.7102 17.2657 42.6809 17.2657 42.6662 17.2657C42.6515 17.2657 42.6515 17.2657 42.6369 17.251C42.6076 17.251 42.5782 17.2363 42.5489 17.2363C42.5489 17.2363 42.5489 17.2363 42.5342 17.2363C42.5342 17.2363 42.5342 17.2363 42.5196 17.2363C42.4903 17.2363 42.4609 17.2363 42.4316 17.251C42.4169 17.251 42.4169 17.251 42.4023 17.2657C42.3876 17.2657 42.3583 17.2803 42.3436 17.2803C42.329 17.2803 42.3143 17.295 42.3143 17.295C42.2996 17.3096 42.2703 17.3096 42.2556 17.3243C42.2263 17.339 42.197 17.3683 42.1823 17.383L29.7627 29.8026C29.5574 30.0078 29.5574 30.3304 29.7627 30.5211C29.8654 30.6237 29.9973 30.6677 30.1293 30.6677C30.2613 30.6677 30.3932 30.6237 30.4959 30.5211L35.3493 25.6676C36.3611 26.5034 37.6075 26.9726 38.9418 26.9726C40.4374 26.9726 41.8451 26.3861 42.9155 25.3303C45.0856 23.1309 45.0856 19.5678 42.9008 17.383ZM42.1677 24.5972C41.3025 25.4623 40.1442 25.9462 38.9271 25.9462C37.8714 25.9462 36.8743 25.5943 36.0678 24.9491L42.5196 18.4974C43.9419 20.2862 43.8393 22.9256 42.1677 24.5972Z" fill="#195BFF"/>
<path d="M62.248 14.568H59.128V13.528H57.016V14.568H53.88V15.96H62.248V14.568ZM56.472 18.168C56.472 17.752 57.064 17.544 58.072 17.544C59.08 17.544 59.656 17.752 59.656 18.168C59.656 18.6 59.08 18.824 58.072 18.824C57.064 18.824 56.472 18.6 56.472 18.168ZM62.616 20.344C61.496 20.472 60.312 20.568 59.128 20.632V20.04C60.696 19.848 61.656 19.176 61.656 18.168C61.656 16.968 60.264 16.248 58.072 16.248C55.88 16.248 54.472 16.968 54.472 18.168C54.472 19.176 55.432 19.848 57.016 20.04V20.712C55.752 20.744 54.568 20.744 53.512 20.744L53.72 22.184C56.264 22.184 59.672 22.152 62.76 21.608L62.616 20.344ZM57.576 26.168H65.368V22.84H55.464V24.232H63.288V24.872H55.48V28.264H65.88V26.872H57.576V26.168ZM65.368 17.112V13.624H63.256V22.312H65.368V18.84H67.224V17.112H65.368ZM75.0308 26.792C73.0628 26.792 72.0548 26.456 72.0548 25.688C72.0548 24.92 73.0628 24.568 75.0308 24.568C76.9988 24.568 78.0068 24.92 78.0068 25.688C78.0068 26.456 76.9988 26.792 75.0308 26.792ZM75.0308 22.968C71.8468 22.968 69.9268 23.944 69.9268 25.688C69.9268 27.416 71.8468 28.392 75.0308 28.392C78.2148 28.392 80.1508 27.416 80.1508 25.688C80.1508 23.944 78.2148 22.968 75.0308 22.968ZM76.1348 20.568V19.352H80.2308V17.672H72.1348V15.944H80.1508V14.264H70.0388V19.352H74.0228V20.568H68.4228V22.248H81.7508V20.568H76.1348ZM90.9138 25.832H98.9778V22.04H88.8018V23.592H96.8978V24.376H88.8178V28.264H99.3618V26.68H90.9138V25.832ZM94.9938 19.608V18.68H99.0418V17.032H91.0418V15.784H98.9298V14.136H88.9457V18.68H92.8818V19.608H87.2818V21.272H100.594V19.608H94.9938ZM105.953 23.272C104.849 23.272 104.113 22.104 104.113 19.912C104.113 17.736 104.849 16.568 105.953 16.568C107.041 16.568 107.793 17.736 107.793 19.912C107.793 22.104 107.041 23.272 105.953 23.272ZM105.953 14.664C103.713 14.664 102.081 16.68 102.081 19.912C102.081 23.16 103.713 25.192 105.953 25.192C108.177 25.192 109.825 23.16 109.825 19.912C109.825 16.68 108.177 14.664 105.953 14.664ZM115.681 19.192H113.537V13.64H111.425V28.376H113.537V20.936H115.681V19.192ZM120.223 18.504H126.527V20.568H120.223V18.504ZM124.431 24.952V22.248H128.607V14.552H126.527V16.84H120.223V14.552H118.127V22.248H122.319V24.952H116.719V26.664H130.063V24.952H124.431ZM132.254 15.16V16.84H137.166C136.862 20.104 135.23 22.408 131.47 24.216L132.574 25.88C137.806 23.352 139.326 19.672 139.326 15.16H132.254ZM141.582 13.624V28.36H143.71V13.624H141.582Z" fill="#195BFF"/>
<path d="M1 1V0.5C0.723858 0.5 0.5 0.723858 0.5 1H1ZM174 1H174.5C174.5 0.723858 174.276 0.5 174 0.5V1ZM174 41V41.5C174.276 41.5 174.5 41.2761 174.5 41H174ZM1 41H0.5C0.5 41.2761 0.723858 41.5 1 41.5V41ZM1 1.5H174V0.5H1V1.5ZM173.5 1V41H174.5V1H173.5ZM174 40.5H1V41.5H174V40.5ZM1.5 41V1H0.5V41H1.5Z" fill="#195BFF"/>
</svg>
