<svg width="24" height="24" viewBox="0 0 24 24" fill="none" xmlns="http://www.w3.org/2000/svg">
<path d="M20.878 21.5H3.20298C2.80128 21.5 2.5 21.2 2.5 20.8V3.2C2.5 2.8 2.80128 2.5 3.20298 2.5H20.7776C21.1793 2.5 21.4805 2.8 21.4805 3.2V20.7C21.581 21.2 21.2797 21.5 20.878 21.5ZM4.00639 20H20.0746V4H4.00639V20Z" fill="black"/>
<path d="M10.2329 16.6007C10.032 16.6007 9.83119 16.5007 9.63033 16.3007L6.61755 12.8007C6.31627 12.5007 6.4167 12.0007 6.71798 11.8007C7.01925 11.5007 7.52138 11.6007 7.72224 11.9007L10.2329 14.8007L16.3589 7.60072C16.6602 7.30072 17.0619 7.30072 17.3631 7.50072C17.6644 7.80072 17.6644 8.20072 17.4636 8.50072L10.735 16.3007C10.6346 16.5007 10.4337 16.6007 10.2329 16.6007Z" fill="black"/>
</svg>
