<svg width="19" height="19" viewBox="0 0 19 19" fill="none" xmlns="http://www.w3.org/2000/svg">
<path d="M5.59995 18.05C4.39995 18.05 3.19995 17.6489 2.29995 16.7464C0.499951 14.9414 0.499951 11.9331 2.29995 10.2283L11.1 1.40381C12.9 -0.401205 15.9 -0.401205 17.6 1.40381C19.4 3.20882 19.4 6.21718 17.6 7.92191L12.8 12.7353C11.6 13.7381 9.99995 13.7381 8.89995 12.7353C7.89995 11.5319 7.89995 9.92749 8.89995 8.82442L13.8 4.01105C14.1 3.71022 14.6 3.71022 14.9 4.01105C15.2 4.31189 15.2 4.81328 14.9 5.11412L10.1 9.92748C9.69995 10.3286 9.69995 11.1308 10.1 11.6322C10.5 12.0333 11.2 12.0333 11.8 11.5319L16.6 6.71857C17.8 5.51523 17.8 3.50966 16.6 2.40659C15.4 1.20325 13.4 1.20325 12.3 2.40659L3.49995 11.2311C2.29995 12.4344 2.29995 14.44 3.49995 15.5431C4.69995 16.7464 6.69995 16.7464 7.79995 15.5431L8.49995 14.8411C8.79995 14.5403 9.29995 14.5403 9.59995 14.8411C9.89995 15.142 9.89995 15.6434 9.59995 15.9442L8.89995 16.6461C7.99995 17.6489 6.79995 18.05 5.59995 18.05Z" fill="black"/>
</svg>
