<svg width="24" height="24" viewBox="0 0 24 24" fill="none" xmlns="http://www.w3.org/2000/svg">
<path d="M13.0723 11.9871L21.7506 3.29796C22.0498 2.99833 22.0498 2.49895 21.7506 2.19933C21.4513 1.8997 20.9526 1.8997 20.6533 2.19933L11.975 10.8885L3.2967 2.19933C2.99745 1.8997 2.4987 1.8997 2.19945 2.19933C1.90019 2.49895 1.90019 2.99833 2.19945 3.29796L10.8777 11.9871L2.19945 20.6762C1.90019 20.9759 1.90019 21.4752 2.19945 21.7749C2.39895 21.8747 2.59845 21.9746 2.79795 21.9746C2.99745 21.9746 3.19695 21.8747 3.2967 21.7749L11.975 13.0857L20.6533 21.7749C20.7531 21.8747 20.9526 21.9746 21.1521 21.9746C21.3516 21.9746 21.5511 21.8747 21.6508 21.7749C21.9501 21.4752 21.9501 20.9759 21.6508 20.6762L13.0723 11.9871Z" fill="black"/>
</svg>
