<svg width="24" height="24" viewBox="0 0 24 24" fill="black" xmlns="http://www.w3.org/2000/svg">
<path d="M13.0724 11.9875L21.7507 3.29832C22.0499 2.9987 22.0499 2.49932 21.7507 2.19969C21.4514 1.90007 20.9527 1.90007 20.6534 2.19969L11.9751 10.8888L3.29679 2.19969C2.99754 1.90007 2.49879 1.90007 2.19954 2.19969C1.90028 2.49932 1.90028 2.9987 2.19954 3.29832L10.8778 11.9875L2.19954 20.6766C1.90028 20.9762 1.90028 21.4756 2.19954 21.7752C2.39904 21.8751 2.59854 21.975 2.79804 21.975C2.99754 21.975 3.19704 21.8751 3.29679 21.7752L11.9751 13.0861L20.6534 21.7752C20.7532 21.8751 20.9527 21.975 21.1522 21.975C21.3517 21.975 21.5512 21.8751 21.6509 21.7752C21.9502 21.4756 21.9502 20.9762 21.6509 20.6766L13.0724 11.9875Z" fill="black"/>
</svg>
