<svg width="24" height="24" viewBox="0 0 24 24" fill="none" xmlns="http://www.w3.org/2000/svg">
<path d="M20.8 21.5H3.2C2.8 21.5 2.5 21.2 2.5 20.8V3.2C2.5 2.8 2.8 2.5 3.2 2.5H20.7C21.1 2.5 21.4 2.8 21.4 3.2V20.7C21.5 21.2 21.2 21.5 20.8 21.5ZM4 20H20V4H4V20Z" fill="black"/>
<path d="M10.2001 16.6C10.0001 16.6 9.80008 16.5 9.60008 16.3L6.60008 12.8C6.30008 12.5 6.40008 12 6.70008 11.8C7.00008 11.5 7.50008 11.6 7.70008 11.9L10.2001 14.8L16.3001 7.59998C16.6001 7.29998 17.0001 7.29998 17.3001 7.49998C17.6001 7.79998 17.6001 8.19998 17.4001 8.49998L10.7001 16.3C10.6001 16.5 10.4001 16.6 10.2001 16.6Z" fill="black"/>
</svg>
