<svg width="24" height="24" viewBox="0 0 24 24" fill="none" xmlns="http://www.w3.org/2000/svg">
<path d="M20.6 9.9602C20.5 9.8607 20.3 9.66169 20.1 9.56219C19.8 5.38309 16.3 2 12 2C7.7 2 4.2 5.38309 3.9 9.56219C3.7 9.66169 3.6 9.76119 3.4 9.9602C3.1 10.2587 3 10.7562 3 11.2537C3.5 15.5323 7 18.7164 11.2 19.1144V20.408H8.3C7.9 20.408 7.5 20.7065 7.5 21.204C7.5 21.602 7.8 22 8.3 22H15.7C16.1 22 16.5 21.7015 16.5 21.204C16.5 20.806 16.2 20.408 15.7 20.408H12.8V19.1144C17 18.7164 20.5 15.5323 21 11.2537C21 10.7562 20.9 10.2587 20.6 9.9602ZM12 3.49254C15.4 3.49254 18.2 6.0796 18.5 9.26368H5.5C5.8 6.0796 8.6 3.49254 12 3.49254ZM12 17.6219C8.2 17.6219 5 14.8358 4.5 11.0547C4.5 10.9552 4.5 10.9552 4.5 10.9552L4.6 10.8557H19.2C19.3 10.8557 19.3 10.8557 19.3 10.9552V11.0547C19 14.8358 15.8 17.6219 12 17.6219Z" fill="black"/>
</svg>
