<svg width="18" height="20" viewBox="0 0 18 20" fill="none" xmlns="http://www.w3.org/2000/svg">
<path d="M17.6 7.9602C17.5 7.8607 17.3 7.66169 17.1 7.56219C16.8 3.38309 13.3 0 9 0C4.7 0 1.2 3.38309 0.9 7.56219C0.7 7.66169 0.6 7.76119 0.4 7.9602C0.1 8.25871 0 8.75622 0 9.25373C0.5 13.5323 4 16.7164 8.2 17.1144V18.408H5.3C4.9 18.408 4.5 18.7065 4.5 19.204C4.5 19.602 4.8 20 5.3 20H12.7C13.1 20 13.5 19.7015 13.5 19.204C13.5 18.806 13.2 18.408 12.7 18.408H9.8V17.1144C14 16.7164 17.5 13.5323 18 9.25373C18 8.75622 17.9 8.25871 17.6 7.9602ZM9 1.49254C12.4 1.49254 15.2 4.0796 15.5 7.26368H2.5C2.8 4.0796 5.6 1.49254 9 1.49254ZM9 15.6219C5.2 15.6219 2 12.8358 1.5 9.05473C1.5 8.95522 1.5 8.95522 1.5 8.95522L1.6 8.85572H16.2C16.3 8.85572 16.3 8.85572 16.3 8.95522V9.05473C16 12.8358 12.8 15.6219 9 15.6219Z" fill="black"/>
</svg>
