<svg width="24" height="24" viewBox="0 0 24 24" fill="none" xmlns="http://www.w3.org/2000/svg">
<path d="M20.8 6H16.7V5C16.7 3.6 15.5 2.5 14 2.5H10.1C8.6 2.5 7.4 3.6 7.4 5V6H3.2C2.8 6 2.5 6.3 2.5 6.8C2.5 7.3 2.8 7.6 3.3 7.6H4.5V19C4.5 20.4 5.7 21.5 7.2 21.5H16.9C18.4 21.5 19.6 20.4 19.6 19V7.5H20.8C21.2 7.5 21.6 7.2 21.6 6.7C21.6 6.2 21.2 6 20.8 6ZM8.9 5C8.9 4.4 9.4 4 10.1 4H14C14.7 4 15.2 4.4 15.2 5V6H8.9V5ZM18.1 19C18.1 19.6 17.6 20 16.9 20H7.1C6.4 20 5.9 19.6 5.9 19V7.5H18V19H18.1Z" fill="black"/>
</svg>
