<svg width="115" height="48" viewBox="0 0 115 48" fill="none" xmlns="http://www.w3.org/2000/svg">
<rect width="115" height="48" fill="#A5A5A5"/>
<path d="M41.232 17.728H38.128V16.512H36.016V17.728H32.88V19.232H41.232V17.728ZM35.472 21.776C35.472 21.232 36.08 20.96 37.072 20.96C38.064 20.96 38.656 21.232 38.656 21.776C38.656 22.32 38.064 22.608 37.072 22.608C36.08 22.608 35.472 22.32 35.472 21.776ZM41.616 24.384C40.496 24.512 39.328 24.608 38.128 24.656V23.904C39.696 23.664 40.656 22.896 40.656 21.776C40.656 20.432 39.248 19.6 37.072 19.6C34.896 19.6 33.472 20.432 33.472 21.776C33.472 22.896 34.448 23.664 36.016 23.904V24.736C34.768 24.768 33.568 24.768 32.512 24.768L32.736 26.384C35.328 26.384 38.688 26.352 41.776 25.808L41.616 24.384ZM34.384 28.896H42.256V31.392H44.368V27.264H34.384V28.896ZM46.224 20.864H44.368V16.64H42.256V26.688H44.368V22.592H46.224V20.864ZM59.6468 16.656H57.5188V27.232H59.6468V16.656ZM49.6788 21.328C49.6788 20.112 50.5428 19.408 51.6308 19.408C52.7348 19.408 53.5668 20.112 53.5668 21.328C53.5668 22.512 52.7348 23.232 51.6308 23.232C50.5428 23.232 49.6788 22.512 49.6788 21.328ZM55.6308 21.328C55.6308 19.152 53.8868 17.584 51.6308 17.584C49.3748 17.584 47.6148 19.152 47.6148 21.328C47.6148 23.472 49.3748 25.056 51.6308 25.056C53.8868 25.056 55.6308 23.472 55.6308 21.328ZM51.9508 29.44V26.192H49.8388V31.12H60.0148V29.44H51.9508Z" fill="white"/>
<path d="M85.7432 15.1925L85.7158 15.1709C85.6916 15.147 85.6654 15.1253 85.6375 15.106L85.5612 15.0727L85.5181 15.0511C85.4901 15.0398 85.4613 15.0307 85.432 15.0236C85.4181 15.0205 85.4043 15.0166 85.3909 15.0118C85.3509 15.0039 85.3103 14.9999 85.2695 15H85.248C85.2066 15 85.1653 15.004 85.1247 15.0118L85.0836 15.0255C85.0541 15.031 85.0252 15.0396 84.9975 15.0511C84.9821 15.0581 84.9671 15.066 84.9525 15.0746C84.9273 15.0858 84.9031 15.0989 84.88 15.1139C84.8415 15.1383 84.806 15.1673 84.7744 15.2003L68.2041 31.8182C68.1399 31.882 68.0888 31.9579 68.0537 32.0416C68.0187 32.1252 68.0005 32.215 68 32.3057C67.9991 32.4889 68.0708 32.665 68.1992 32.7952C68.3277 32.9254 68.5025 32.9991 68.6851 33C68.8677 33.0009 69.0432 32.929 69.173 32.8001L75.6515 26.2998C77.1317 27.5623 79.0426 28.1988 80.9814 28.0751C82.9202 27.9513 84.7353 27.077 86.0441 25.6365C87.3529 24.196 88.053 22.3019 87.9969 20.3535C87.9407 18.4051 87.1327 16.5547 85.7432 15.1925ZM84.7646 24.8545C83.6995 25.9222 82.2801 26.5592 80.7769 26.6439C79.2737 26.7287 77.792 26.2553 76.6145 25.314L85.2265 16.6732C86.1652 17.8548 86.6379 19.3415 86.5546 20.8503C86.4712 22.359 85.8375 23.7843 84.7744 24.8545H84.7646Z" fill="white"/>
</svg>
