<svg width="24" height="24" viewBox="0 0 24 24" fill="none" xmlns="http://www.w3.org/2000/svg">
<path d="M2.801 22.0251C2.60075 22.0251 2.4005 21.9249 2.30038 21.8248C2 21.6246 2 21.3242 2 21.0238L3.40175 15.9174C3.40175 15.8173 3.50188 15.7172 3.602 15.6171L12.9136 6.30542C13.214 6.00505 13.7146 6.00505 14.015 6.30542L17.7197 10.0101C17.8198 10.1102 17.9199 10.3104 17.9199 10.5107C17.9199 10.7109 17.8198 10.9112 17.7197 11.0113L8.40801 20.3229C8.30789 20.4231 8.20776 20.5232 8.10764 20.5232L3.00125 22.0251C2.90113 22.0251 2.801 22.0251 2.801 22.0251ZM4.90363 16.5182L3.90238 20.1227L7.50688 19.1214L16.1176 10.5107L13.5144 7.90742L4.90363 16.5182Z" fill="black"/>
<path d="M19.2216 9.30913C19.0213 9.30913 18.8211 9.209 18.7209 9.10888L15.0163 5.40425C14.7159 5.10387 14.7159 4.60325 15.0163 4.30287L16.2178 3.00124C17.5194 1.69962 19.7222 1.69962 21.0238 3.00124C22.3254 4.30287 22.3254 6.50563 21.0238 7.80725L19.7222 9.10888C19.6221 9.209 19.4218 9.30913 19.2216 9.30913ZM16.5182 4.8035L19.1214 7.40675L19.9224 6.60575C20.6233 5.90487 20.6233 4.70337 19.9224 4.0025C19.2216 3.30162 18.0201 3.30162 17.3192 4.0025L16.5182 4.8035Z" fill="black"/>
</svg>
