<svg width="20" height="21" viewBox="0 0 20 21" fill="none" xmlns="http://www.w3.org/2000/svg">
<path d="M0.801001 20.0251C0.600751 20.0251 0.400501 19.925 0.300375 19.8249C-5.96793e-08 19.6246 0 19.3243 0 19.0239L1.40175 13.9175C1.40175 13.8174 1.50188 13.7172 1.602 13.6171L10.9136 4.30548C11.214 4.00511 11.7146 4.00511 12.015 4.30548L15.7197 8.01011C15.8198 8.11024 15.9199 8.31049 15.9199 8.51074C15.9199 8.71099 15.8198 8.91124 15.7197 9.01136L6.40801 18.323C6.30789 18.4231 6.20776 18.5233 6.10764 18.5233L1.00125 20.0251C0.901127 20.0251 0.801001 20.0251 0.801001 20.0251ZM2.90363 14.5182L1.90238 18.1228L5.50688 17.1215L14.1176 8.51074L11.5144 5.90748L2.90363 14.5182Z" fill="black"/>
<path d="M17.2216 7.30913C17.0213 7.30913 16.8211 7.209 16.7209 7.10888L13.0163 3.40425C12.7159 3.10387 12.7159 2.60325 13.0163 2.30287L14.2178 1.00124C15.5194 -0.300382 17.7222 -0.300382 19.0238 1.00124C20.3254 2.30287 20.3254 4.50563 19.0238 5.80725L17.7222 7.10888C17.6221 7.209 17.4218 7.30913 17.2216 7.30913ZM14.5182 2.8035L17.1214 5.40675L17.9224 4.60575C18.6233 3.90487 18.6233 2.70337 17.9224 2.0025C17.2216 1.30162 16.0201 1.30162 15.3192 2.0025L14.5182 2.8035Z" fill="black"/>
</svg>
