<svg width="24" height="24" viewBox="0 0 24 24" fill="none" xmlns="http://www.w3.org/2000/svg">
<path d="M0.793388 4H3.86777C4.16529 5.5 5.45455 6.5 6.94215 6.5C8.42975 6.5 9.71901 5.4 10.1157 4H23.1074C23.5041 4 23.8017 3.7 23.8017 3.3C23.8017 2.9 23.5041 2.5 23.0083 2.5H10.1157C9.71901 1.1 8.42975 0 6.94215 0C5.45455 0 4.16529 1.1 3.76859 2.5H0.793388C0.297521 2.5 0 2.8 0 3.3C0 3.8 0.297521 4 0.793388 4ZM6.94215 1.5C7.93388 1.5 8.6281 2.3 8.6281 3.2C8.6281 4.1 7.93388 5 6.94215 5C5.95041 5 5.2562 4.2 5.2562 3.3C5.2562 2.4 6.04959 1.5 6.94215 1.5Z" fill="black"/>
<path d="M23.0083 11.2002H19.9339C19.6364 9.8002 18.3471 8.7002 16.7603 8.7002C15.2727 8.7002 13.9835 9.8002 13.5868 11.2002H0.793388C0.297521 11.2002 0 11.6002 0 12.0002C0 12.4002 0.297521 12.8002 0.793388 12.8002H13.7851C14.0826 14.2002 15.3719 15.3002 16.9587 15.3002C18.4463 15.3002 19.7355 14.2002 20.1322 12.8002H23.2066C23.6033 12.8002 24 12.5002 24 12.0002C24 11.5002 23.5041 11.2002 23.0083 11.2002ZM16.8595 13.7002C15.8678 13.7002 15.1736 12.9002 15.1736 12.0002C15.1736 11.1002 15.9669 10.3002 16.8595 10.3002C17.8512 10.3002 18.5455 11.1002 18.5455 12.0002C18.5455 12.9002 17.7521 13.7002 16.8595 13.7002Z" fill="black"/>
<path d="M23.0083 20H13.7851C13.4876 18.6 12.1983 17.5 10.6116 17.5C9.02479 17.5 7.83471 18.5 7.53719 20H0.793388C0.297521 20 0 20.3 0 20.7C0 21.1 0.297521 21.5 0.793388 21.5H7.53719C7.83471 22.9 9.12397 24 10.7107 24C12.2975 24 13.4876 22.9 13.8843 21.5H23.1074C23.5041 21.5 23.9008 21.2 23.9008 20.7C23.9008 20.2 23.5041 20 23.0083 20ZM10.7107 22.5C9.71901 22.5 9.02479 21.7 9.02479 20.8C9.02479 19.9 9.71901 19 10.7107 19C11.7025 19 12.3967 19.8 12.3967 20.7C12.3967 21.6 11.6033 22.5 10.7107 22.5Z" fill="black"/>
</svg>
