<svg width="57" height="75" viewBox="0 0 57 75" fill="none" xmlns="http://www.w3.org/2000/svg">
<path d="M28.1756 19.0806C27.5139 19.0806 26.9567 18.5235 26.9567 17.862V6.6503C26.9567 5.98874 27.5139 5.43164 28.1756 5.43164C28.8374 5.43164 29.3946 5.98874 29.3946 6.6503V17.862C29.3946 18.5235 28.8374 19.0806 28.1756 19.0806Z" fill="black"/>
<path d="M19.4687 20.6823C19.1552 20.6823 18.8418 20.5779 18.598 20.3341L10.6573 12.3954C10.1697 11.908 10.1697 11.142 10.6573 10.6893C11.1448 10.2019 11.911 10.2019 12.3638 10.6893L20.3045 18.628C20.7921 19.1155 20.7921 19.8815 20.3045 20.3341C20.0956 20.5779 19.7821 20.6823 19.4687 20.6823Z" fill="black"/>
<path d="M36.8825 20.6823C36.569 20.6823 36.2556 20.5779 36.0118 20.3341C35.5242 19.8467 35.5242 19.0807 36.0118 18.628L43.9525 10.6893C44.4401 10.2019 45.2063 10.2019 45.6591 10.6893C46.1466 11.1768 46.1466 11.9428 45.6591 12.3954L37.7183 20.3341C37.5094 20.5779 37.1959 20.6823 36.8825 20.6823Z" fill="black"/>
<path d="M52.9381 10.2022C52.8336 10.2022 52.6943 10.1325 52.6246 10.0281L51.7539 8.53087C51.7191 8.46123 51.6843 8.35677 51.7191 8.25232C51.7539 8.14786 51.7888 8.07823 51.8932 8.04341L55.0974 6.198C55.2715 6.09355 55.4805 6.16318 55.585 6.33728L56.4557 7.83449C56.4905 7.90413 56.5253 8.00859 56.4905 8.11304C56.4557 8.2175 56.4209 8.28713 56.3164 8.32195L53.1122 10.1674C53.0774 10.1674 53.0077 10.2022 52.9381 10.2022ZM52.555 8.46123L53.0774 9.36652L55.6895 7.86931L55.1671 6.96402L52.555 8.46123Z" fill="black"/>
<path d="M7.10488 19.6032C7.07005 19.6032 7.03523 19.6032 7.0004 19.6032L3.41316 18.6283C3.30867 18.5934 3.23902 18.5586 3.20419 18.4542C3.16937 18.3497 3.13454 18.2801 3.16936 18.1756L3.62212 16.5043C3.65695 16.3302 3.86592 16.2258 4.04005 16.2606L7.6273 17.2355C7.73178 17.2703 7.80144 17.3051 7.83626 17.4096C7.87109 17.5141 7.90592 17.5837 7.87109 17.6881L7.41834 19.3595C7.41834 19.4987 7.27902 19.6032 7.10488 19.6032ZM3.9704 18.0363L6.86109 18.8024L7.13971 17.7926L4.24902 17.0266L3.9704 18.0363Z" fill="black"/>
<path d="M1.4976 11.0374C0.66173 11.0374 0 10.3758 0 9.54018C0 8.70452 0.66173 8.04297 1.4976 8.04297C2.33347 8.04297 2.9952 8.70452 2.9952 9.54018C3.03003 10.3758 2.33347 11.0374 1.4976 11.0374ZM1.4976 8.73935C1.04484 8.73935 0.696557 9.08753 0.696557 9.54018C0.696557 9.99282 1.04484 10.341 1.4976 10.341C1.95036 10.341 2.29864 9.99282 2.29864 9.54018C2.29864 9.08753 1.95036 8.73935 1.4976 8.73935Z" fill="black"/>
<path d="M15.3939 2.99442C14.558 2.99442 13.8963 2.33286 13.8963 1.49721C13.8963 0.661559 14.558 0 15.3939 0C16.2297 0 16.8914 0.661559 16.8914 1.49721C16.9263 2.29804 16.2297 2.99442 15.3939 2.99442ZM15.3939 0.661556C14.9411 0.661556 14.5928 1.00975 14.5928 1.46239C14.5928 1.91504 14.9411 2.26322 15.3939 2.26322C15.8466 2.26322 16.1949 1.91504 16.1949 1.46239C16.1949 1.00975 15.8466 0.661556 15.3939 0.661556Z" fill="black"/>
<path d="M50.7439 18.8719C49.9081 18.8719 49.2463 18.2103 49.2463 17.3746C49.2463 16.539 49.9081 15.8774 50.7439 15.8774C51.5798 15.8774 52.2415 16.539 52.2415 17.3746C52.2415 18.1755 51.5798 18.8719 50.7439 18.8719ZM50.7439 16.539C50.2912 16.539 49.9429 16.8872 49.9429 17.3398C49.9429 17.7925 50.2912 18.1407 50.7439 18.1407C51.1967 18.1407 51.545 17.7925 51.545 17.3398C51.545 16.8872 51.1967 16.539 50.7439 16.539Z" fill="black"/>
<path d="M44.858 48.2936C44.7535 48.2936 44.6142 48.2936 44.5097 48.2588C43.848 48.0499 43.4997 47.3883 43.6738 46.7267C44.1266 45.2295 44.3355 43.6627 44.3355 42.0958C44.3355 33.1822 37.0566 25.9051 28.1407 25.9051C19.2248 25.9051 11.9458 33.1822 11.9458 42.0958C11.9458 43.6627 12.1547 45.2295 12.6075 46.7267C12.8165 47.3883 12.4334 48.0499 11.7716 48.2588C11.1099 48.4329 10.4482 48.0847 10.2392 47.4231C9.71679 45.717 9.47301 43.9064 9.47301 42.0958C9.47301 31.8243 17.8317 23.4678 28.1058 23.4678C38.38 23.4678 46.7387 31.8243 46.7387 42.0958C46.7387 43.9064 46.4949 45.717 45.9724 47.4231C45.868 47.9454 45.3804 48.2936 44.858 48.2936Z" fill="black"/>
<path d="M28.1756 69.1851C15.9859 69.1851 6.05997 59.2617 6.05997 47.0751C6.05997 46.4135 6.61721 45.8564 7.27894 45.8564H49.0722C49.7339 45.8564 50.2912 46.4135 50.2912 47.0751C50.2912 59.2617 40.3653 69.1851 28.1756 69.1851ZM8.53274 48.2938C9.15964 58.5653 17.7272 66.7477 28.1756 66.7477C38.6239 66.7477 47.1915 58.5653 47.8184 48.2938H8.53274Z" fill="black"/>
<path d="M28.1755 74.9996C27.5138 74.9996 26.9565 74.4425 26.9565 73.781V67.9662C26.9565 67.3047 27.5138 66.7476 28.1755 66.7476C28.8372 66.7476 29.3945 67.3047 29.3945 67.9662V73.781C29.3945 74.4425 28.8372 74.9996 28.1755 74.9996Z" fill="black"/>
<path d="M37.9621 74.9998H18.389C17.7272 74.9998 17.17 74.4427 17.17 73.7812C17.17 73.1196 17.7272 72.5625 18.389 72.5625H37.9621C38.6239 72.5625 39.1811 73.1196 39.1811 73.7812C39.1811 74.4427 38.6239 74.9998 37.9621 74.9998Z" fill="black"/>
</svg>
