<svg width="24" height="24" viewBox="0 0 24 24" fill="none" xmlns="http://www.w3.org/2000/svg">
<path d="M22.8264 17.0096C22.7222 16.9089 22.5659 16.8417 22.3923 16.8417L14.266 16.8417C14.1271 15.3477 13.4499 13.9544 12.3386 12.8801C11.0884 11.6715 9.42147 11 7.65036 11C3.98658 11 0.999999 13.8873 0.999999 17.4293C0.999999 17.446 0.999999 17.446 0.999999 17.4628C0.999999 17.4964 0.999999 17.5132 1.01736 17.5468C1.01736 17.5635 1.03473 17.5971 1.03473 17.6139C1.03473 17.6307 1.03473 17.6475 1.05209 17.6475C1.06945 17.6643 1.06945 17.6978 1.08682 17.7146C1.08682 17.7314 1.10418 17.7314 1.10418 17.7482C1.12155 17.7818 1.15627 17.7986 1.17364 17.8321C1.191 17.8489 1.22573 17.8825 1.26046 17.8993C1.27782 17.8993 1.27782 17.9161 1.29518 17.9161C1.31255 17.9329 1.34728 17.9496 1.36464 17.9496C1.382 17.9496 1.39937 17.9664 1.41673 17.9664C1.4341 17.9664 1.46882 17.9832 1.48619 17.9832C1.52091 17.9832 1.57301 18 1.60773 18L22.3923 18C22.7222 18 23 17.7314 23 17.4125C23 17.2614 22.9305 17.1103 22.8264 17.0096Z" fill="#A5A5A5"/>
</svg>
