<svg width="127" height="32" viewBox="0 0 127 32" fill="none" xmlns="http://www.w3.org/2000/svg">
<path d="M0 18.5825C0.0111907 18.278 0.10318 17.9815 0.266995 17.722C0.43081 17.4624 0.660857 17.2487 0.934697 17.1016C1.23858 16.9001 1.59828 16.7935 1.96588 16.7961C2.2437 16.802 2.51739 16.8628 2.77033 16.9749C3.02327 17.0871 3.25018 17.2481 3.43727 17.4484C4.23769 18.3651 5.21498 19.1198 6.31373 19.6696C7.46699 20.1897 8.72794 20.4431 9.99824 20.41C11.0534 20.4081 12.0909 20.1453 13.0134 19.6461C13.438 19.4166 13.7859 19.073 14.0158 18.6563C14.2456 18.2396 14.3477 17.7672 14.3099 17.2956C14.3164 16.8384 14.1945 16.3882 13.9575 15.9936C13.7205 15.599 13.3774 15.2751 12.9652 15.0567C11.7516 14.41 10.4531 13.9276 9.10576 13.6228C7.68622 13.2729 6.29701 12.8151 4.95088 12.2537C3.86501 11.7844 2.90985 11.0692 2.16488 10.1676C1.36553 9.13757 0.962209 7.86701 1.02515 6.5771C1.0026 5.34146 1.40368 4.13379 2.16488 3.14531C2.94838 2.1361 3.98731 1.34237 5.18003 0.841785C6.48628 0.279723 7.90105 -0.00281854 9.32888 0.0132197C10.7851 0.0179125 12.2281 0.282812 13.5863 0.794774C14.9394 1.27498 16.1349 2.10108 17.0477 3.18645C17.3785 3.52982 17.5694 3.97908 17.5844 4.44986C17.5701 4.70922 17.5006 4.96285 17.3801 5.19455C17.2597 5.42625 17.091 5.63093 16.8849 5.79555C16.5793 6.0625 16.1794 6.20363 15.7692 6.18926C15.5271 6.19934 15.2856 6.15776 15.0617 6.06742C14.8377 5.97709 14.6367 5.84018 14.4727 5.66627C13.8411 4.96783 13.0557 4.41742 12.1752 4.05615C11.2212 3.66365 10.1955 3.46374 9.16003 3.46851C8.14984 3.44118 7.15114 3.68296 6.27152 4.1678C5.87152 4.39962 5.54639 4.73626 5.33316 5.13937C5.11992 5.54248 5.02717 5.99585 5.06545 6.44782C5.05708 6.90989 5.17922 7.36531 5.41851 7.76431C5.6578 8.16331 6.00504 8.49053 6.42227 8.71022C7.70287 9.34946 9.06004 9.8311 10.4626 10.144C11.806 10.472 13.1191 10.9084 14.3883 11.4486C15.4405 11.9125 16.3553 12.6281 17.0477 13.5288C17.79 14.5752 18.1568 15.8312 18.0909 17.1016C18.1144 18.3767 17.6888 19.6211 16.8849 20.6275C16.0605 21.6381 14.9883 22.4303 13.7672 22.931C12.4654 23.4735 11.0643 23.7534 9.64849 23.7537C7.86857 23.7706 6.10252 23.4472 4.45036 22.8017C2.84707 22.157 1.44998 21.106 0.40403 19.7578C0.154241 19.413 0.013761 19.0043 0 18.5825Z" fill="black"/>
<path d="M43.5328 1.03571C43.7352 1.24027 43.893 1.48268 43.9966 1.7483C44.1003 2.01392 44.1476 2.29725 44.1358 2.58119V29.9297C44.1407 30.2031 44.09 30.4748 43.9865 30.729C43.883 30.9832 43.7288 31.2148 43.5328 31.4106C43.3314 31.6075 43.0901 31.7615 42.8243 31.8627C42.5586 31.9638 42.2741 32.01 41.989 31.9982C41.7085 32.0095 41.4287 31.963 41.1679 31.8617C40.9071 31.7605 40.6711 31.6067 40.4754 31.4106C40.277 31.2129 40.1213 30.9784 40.0177 30.721C39.9141 30.4636 39.8647 30.1885 39.8724 29.9121V19.9928C39.0487 21.1025 37.9709 22.0099 36.7246 22.6431C35.3932 23.3639 33.8937 23.7383 32.3707 23.7302C30.4286 23.7533 28.5216 23.2245 26.8831 22.2082C25.2191 21.1642 23.877 19.7 22.9996 17.9714C22.0286 16.0751 21.5404 13.9789 21.5764 11.8599C21.5516 9.7509 22.0414 7.66628 23.0056 5.77793C23.8662 4.04408 25.2018 2.57577 26.865 1.5352C28.3107 0.643147 29.9642 0.121535 31.6721 0.0188017C33.38 -0.0839315 35.0868 0.235545 36.6341 0.947566C37.8978 1.52665 39.0125 2.37396 39.8965 3.42739V2.58119C39.8846 2.01638 40.1012 1.46968 40.4995 1.05922C40.6943 0.86183 40.9301 0.707286 41.1911 0.605939C41.4522 0.504592 41.7324 0.458783 42.0131 0.471582C42.2923 0.461698 42.5706 0.506538 42.8317 0.603442C43.0927 0.700346 43.3311 0.847341 43.5328 1.03571V1.03571ZM36.616 18.8881C37.7156 18.1741 38.5936 17.1803 39.1548 16.0145C39.779 14.7297 40.0926 13.3225 40.0714 11.9011C40.0905 10.4799 39.777 9.07313 39.1548 7.78764C38.5996 6.61343 37.7207 5.61252 36.616 4.89647C35.4995 4.21316 34.2078 3.85067 32.8893 3.85067C31.5708 3.85067 30.2791 4.21316 29.1626 4.89647C28.0561 5.61217 27.1752 6.61302 26.6178 7.78764C25.9955 9.07313 25.6821 10.4799 25.7012 11.9011C25.6799 13.3225 25.9935 14.7297 26.6178 16.0145C27.1824 17.1799 28.0622 18.1733 29.1626 18.8881C30.2803 19.5681 31.5716 19.9286 32.8893 19.9286C34.207 19.9286 35.4982 19.5681 36.616 18.8881Z" fill="black"/>
<path d="M70.9948 18.0184C69.9971 19.7753 68.5247 21.2325 66.7374 22.2317C64.9186 23.2295 62.8666 23.7537 60.7794 23.7537C58.6923 23.7537 56.6403 23.2295 54.8215 22.2317C53.0323 21.2329 51.5579 19.7757 50.5581 18.0184C49.4998 16.1572 48.9612 14.058 48.9962 11.9305C48.9642 9.78838 49.5023 7.67473 50.5581 5.79559C51.5493 4.01984 53.0247 2.54549 54.8215 1.53523C56.6403 0.537471 58.6923 0.0133057 60.7794 0.0133057C62.8666 0.0133057 64.9186 0.537471 66.7374 1.53523C68.5323 2.54586 70.0057 4.02026 70.9948 5.79559C72.0505 7.67473 72.5886 9.78838 72.5566 11.9305C72.5917 14.058 72.0531 16.1572 70.9948 18.0184V18.0184ZM67.3163 7.73478C66.6946 6.55198 65.7518 5.55807 64.5906 4.86125C63.4368 4.19227 62.119 3.83916 60.7764 3.83916C59.4338 3.83916 58.1161 4.19227 56.9623 4.86125C55.814 5.56257 54.884 6.55616 54.2727 7.73478C53.586 9.03063 53.24 10.4723 53.2657 11.9305C53.2462 13.3618 53.5923 14.7754 54.2727 16.0439C54.8983 17.2145 55.8383 18.1975 56.9924 18.8881C58.1462 19.5571 59.464 19.9102 60.8066 19.9102C62.1492 19.9102 63.4669 19.5571 64.6208 18.8881C65.7767 18.1979 66.7188 17.2149 67.3464 16.0439C68.0251 14.7749 68.3691 13.3613 68.3475 11.9305C68.3657 10.4703 68.0114 9.02852 67.3163 7.73478V7.73478Z" fill="black"/>
<path d="M98.0407 18.0184C97.0392 19.7745 95.5651 21.2312 93.7773 22.2317C91.9585 23.2295 89.9065 23.7537 87.8193 23.7537C85.7322 23.7537 83.6802 23.2295 81.8614 22.2317C80.0736 21.2312 78.5995 19.7745 77.598 18.0184C76.5426 16.1561 76.0042 14.0577 76.0361 11.9305C76.0071 9.78872 76.545 7.6758 77.598 5.79559C78.591 4.02112 80.066 2.54718 81.8614 1.53523C83.6802 0.537471 85.7322 0.0133057 87.8193 0.0133057C89.9065 0.0133057 91.9585 0.537471 93.7773 1.53523C95.5727 2.54718 97.0477 4.02112 98.0407 5.79559C99.0936 7.6758 99.6316 9.78872 99.6026 11.9305C99.6345 14.0577 99.0961 16.1561 98.0407 18.0184ZM94.3562 7.73478C93.7415 6.5566 92.8098 5.56336 91.6606 4.86125C90.5059 4.19176 89.1871 3.83837 87.8435 3.83837C86.4998 3.83837 85.181 4.19176 84.0263 4.86125C82.8669 5.55843 81.9261 6.55239 81.3066 7.73478C80.6199 9.03063 80.2739 10.4723 80.2996 11.9305C80.2801 13.3618 80.6261 14.7754 81.3066 16.0439C81.9321 17.2145 82.8721 18.1975 84.0263 18.8881C85.181 19.5576 86.4998 19.911 87.8435 19.911C89.1871 19.911 90.5059 19.5576 91.6606 18.8881C92.8134 18.1959 93.7531 17.2133 94.3803 16.0439C95.0608 14.7754 95.4069 13.3618 95.3874 11.9305C95.4056 10.4703 95.0513 9.02852 94.3562 7.73478V7.73478Z" fill="black"/>
<path d="M121.734 1.64091C123.392 2.66889 124.728 4.12273 125.593 5.8425C126.551 7.73418 127.033 9.82114 126.998 11.9304C127.033 14.0322 126.552 16.1117 125.593 17.9948C124.72 19.7077 123.386 21.1577 121.734 22.1905C120.116 23.2036 118.229 23.7327 116.306 23.7125C114.804 23.721 113.321 23.3784 111.983 22.7135C110.742 22.1188 109.635 21.2898 108.726 20.2748V29.9297C108.731 30.2031 108.68 30.4747 108.577 30.7289C108.473 30.9831 108.319 31.2148 108.123 31.4105C107.922 31.6075 107.681 31.7614 107.415 31.8626C107.149 31.9638 106.865 32.0099 106.58 31.9981C106.302 32.0048 106.027 31.9561 105.769 31.8551C105.512 31.754 105.279 31.6027 105.084 31.4105C104.884 31.2141 104.727 30.9798 104.623 30.7221C104.52 30.4644 104.471 30.1887 104.481 29.912V2.58113C104.469 2.01632 104.686 1.46961 105.084 1.05915C105.279 0.861768 105.515 0.707223 105.776 0.605876C106.037 0.504529 106.317 0.45872 106.598 0.471519C106.883 0.459738 107.167 0.5059 107.433 0.607068C107.699 0.708235 107.94 0.862195 108.141 1.05915C108.34 1.26132 108.496 1.49995 108.6 1.76121C108.703 2.02248 108.752 2.30117 108.744 2.58113V3.83867C109.56 2.74093 110.63 1.84685 111.868 1.22957C113.21 0.512169 114.716 0.138128 116.246 0.142443C118.185 0.11963 120.089 0.639725 121.734 1.64091V1.64091ZM119.46 18.8175C120.567 18.1145 121.453 17.1285 122.023 15.9675C122.648 14.7017 122.962 13.3114 122.94 11.9069C122.963 10.5004 122.649 9.1081 122.023 7.84046C121.453 6.67937 120.567 5.6934 119.46 4.99043C118.362 4.30849 117.084 3.95318 115.782 3.96795C114.458 3.9474 113.157 4.30267 112.037 4.99043C110.922 5.68544 110.031 6.67344 109.468 7.84046C108.843 9.12467 108.531 10.5326 108.557 11.9539C108.531 13.3752 108.842 14.7832 109.468 16.0674C110.031 17.2344 110.922 18.2224 112.037 18.9174C113.163 19.5866 114.464 19.9234 115.782 19.887C117.089 19.8916 118.369 19.5195 119.46 18.8175V18.8175Z" fill="black"/>
</svg>
