<svg width="32" height="38" viewBox="0 0 32 38" fill="none" xmlns="http://www.w3.org/2000/svg">
<path d="M13.6411 26.2291C10.9432 26.2291 8.3058 25.4599 6.06253 24.0189C3.81926 22.5778 2.07084 20.5296 1.03837 18.1333C0.00591048 15.7369 -0.264229 13.1 0.262117 10.556C0.788462 8.01205 2.08765 5.67527 3.9954 3.84116C5.90314 2.00706 8.33376 0.758025 10.9799 0.251998C13.626 -0.254029 16.3688 0.00568232 18.8614 0.998291C21.354 1.9909 23.4844 3.67182 24.9833 5.8285C26.4822 7.98517 27.2823 10.5207 27.2823 13.1145C27.2775 16.5913 25.8388 19.9244 23.2816 22.3828C20.7244 24.8413 17.2575 26.2245 13.6411 26.2291ZM13.6411 2.02609C11.36 2.02609 9.13006 2.67641 7.23336 3.89483C5.33665 5.11324 3.85835 6.84502 2.98539 8.87117C2.11243 10.8973 1.88403 13.1268 2.32906 15.2778C2.77409 17.4287 3.87257 19.4045 5.48558 20.9553C7.0986 22.506 9.1537 23.5621 11.391 23.9899C13.6283 24.4178 15.9474 24.1982 18.0549 23.3589C20.1624 22.5197 21.9637 21.0984 23.231 19.275C24.4984 17.4515 25.1748 15.3076 25.1748 13.1145C25.1708 10.1749 23.9544 7.35671 21.7923 5.27805C19.6302 3.19939 16.6988 2.02992 13.6411 2.02609Z" fill="black"/>
<path d="M12.9697 26.7096C13.9407 27.6515 15.0957 28.3997 16.3683 28.9113C17.6409 29.4229 19.0061 29.6878 20.3855 29.6907C21.7649 29.6937 23.1313 29.4347 24.4063 28.9285C25.6813 28.4224 26.8397 27.6791 27.8151 26.7414C28.7905 25.8037 29.5636 24.69 30.09 23.4642C30.6165 22.2385 30.8859 20.9248 30.8828 19.5986C30.8797 18.2725 30.6042 16.96 30.0721 15.7365C29.54 14.513 28.7617 13.4026 27.782 12.4691L12.9697 26.7096Z" fill="#195BFF"/>
<path d="M28.5286 11.7541L28.4865 11.7223C28.4493 11.6872 28.409 11.6552 28.366 11.6268L28.2486 11.5776L28.1824 11.5457C28.1393 11.5292 28.095 11.5156 28.0499 11.5052C28.0285 11.5007 28.0073 11.4949 27.9867 11.4878C27.9252 11.4762 27.8627 11.4704 27.8 11.4705H27.7669C27.7033 11.4705 27.6398 11.4763 27.5772 11.4878L27.514 11.5081C27.4686 11.5162 27.4242 11.5288 27.3816 11.5457C27.3579 11.5561 27.3348 11.5677 27.3123 11.5804C27.2736 11.5969 27.2364 11.6162 27.2009 11.6383C27.1416 11.6743 27.087 11.7171 27.0383 11.7657L1.55043 36.2581C1.45159 36.3522 1.37299 36.4641 1.31912 36.5873C1.26525 36.7106 1.23716 36.8429 1.23646 36.9766C1.23505 37.2466 1.34528 37.5062 1.5429 37.6981C1.74052 37.89 2.00935 37.9986 2.29023 37.9999C2.57112 38.0013 2.84107 37.8953 3.04069 37.7053L13.0058 28.1248C15.2826 29.9856 18.2219 30.9237 21.2041 30.7413C24.1863 30.5589 26.9783 29.2703 28.9914 27.1472C31.0046 25.0241 32.0815 22.2324 31.9951 19.3608C31.9088 16.4891 30.6659 13.7619 28.5286 11.7541ZM27.0233 25.9946C25.3851 27.5682 23.2017 28.507 20.8895 28.632C18.5774 28.7569 16.2983 28.0592 14.4871 26.6719L27.7338 13.9365C29.1777 15.678 29.9049 17.8693 29.7766 20.093C29.6484 22.3166 28.6737 24.4172 27.0383 25.9946H27.0233Z" fill="black"/>
</svg>
