<svg width="110" height="70" viewBox="0 0 110 70" fill="none" xmlns="http://www.w3.org/2000/svg">
<path d="M94.009 69.9998C93.5559 69.9998 93.1078 69.8308 92.7654 69.4877L32.6472 10.1177C31.9574 9.43652 31.9574 8.33763 32.6472 7.65642C33.3369 6.9752 34.4496 6.9752 35.1393 7.65642L95.2576 67.0264C95.9473 67.7076 95.9473 68.8065 95.2576 69.4877C94.9102 69.8308 94.4621 69.9998 94.009 69.9998Z" fill="black"/>
<path d="M68.8293 45.1291C68.361 45.1291 67.913 44.9451 67.5857 44.617L32.6455 10.1187C32.3132 9.79057 32.127 9.34803 32.127 8.89057C32.127 8.43312 32.3132 7.9856 32.6455 7.6624C37.6449 2.71988 44.2906 0 51.3592 0C58.4278 0 65.0734 2.71988 70.0728 7.65743C75.0722 12.595 77.8261 19.1585 77.8261 26.1397C77.8261 33.1209 75.0722 39.6844 70.0728 44.6219C69.7456 44.9501 69.2975 45.1291 68.8293 45.1291ZM36.4315 8.93035L68.7839 40.8827C72.3535 36.7805 74.3019 31.6043 74.3019 26.1397C74.3019 20.0883 71.9155 14.3999 67.5807 10.1187C63.2459 5.83755 57.4863 3.48065 51.3592 3.48065C45.8211 3.48065 40.5851 5.40495 36.4315 8.93035Z" fill="black"/>
<path d="M29.0973 46.0124C28.6442 46.0124 28.1961 45.8433 27.8537 45.5003C27.164 44.819 27.164 43.7201 27.8537 43.0389L38.1042 32.9152C38.7939 32.234 39.9066 32.234 40.5963 32.9152C41.2861 33.5964 41.2861 34.6953 40.5963 35.3765L30.3459 45.5003C29.9985 45.8384 29.5504 46.0124 29.0973 46.0124Z" fill="black"/>
<path d="M50.3529 58.1952C49.3813 58.1952 48.5908 57.4146 48.5908 56.4549V42.0997C48.5908 41.14 49.3813 40.3594 50.3529 40.3594C51.3246 40.3594 52.115 41.14 52.115 42.0997V56.4499C52.115 57.4146 51.3246 58.1952 50.3529 58.1952Z" fill="black"/>
<path d="M31.292 25.0207H16.7621C15.7904 25.0207 15 24.24 15 23.2804C15 22.3207 15.7904 21.54 16.7621 21.54H31.292C32.2637 21.54 33.0541 22.3207 33.0541 23.2804C33.0541 24.24 32.2637 25.0207 31.292 25.0207Z" fill="black"/>
</svg>
