<svg width="44" height="44" viewBox="0 0 44 44" fill="none" xmlns="http://www.w3.org/2000/svg">
<path d="M13.4934 37.9375C6.62486 37.9375 1.04761 32.3327 1.04761 25.4917C1.04761 18.6231 6.62486 13.0459 13.4934 13.0459C20.3619 13.0459 25.9392 18.6231 25.9392 25.4917C25.9392 32.3327 20.3619 37.9375 13.4934 37.9375ZM13.4934 14.9691C7.69635 14.9691 2.9708 19.6672 2.9708 25.4917C2.9708 31.3162 7.69635 36.0143 13.4934 36.0143C19.2904 36.0143 24.016 31.2887 24.016 25.4917C24.016 19.6946 19.2904 14.9691 13.4934 14.9691Z" fill="black"/>
<path d="M23.6478 7.13515L23.6204 7.16263C23.5929 7.1901 23.5379 7.21757 23.5105 7.24505C23.483 7.27252 23.4555 7.3 23.428 7.32747C23.428 7.35494 23.4006 7.35494 23.4006 7.38242C23.3456 7.43737 23.3456 7.49232 23.3181 7.51979C23.3181 7.54726 23.2907 7.54726 23.2907 7.57474C23.2632 7.62969 23.2632 7.68463 23.2357 7.73958C23.2357 7.73958 23.2357 7.73958 23.2357 7.76706C23.2357 7.76706 23.2357 7.76706 23.2357 7.79453C23.2357 7.84948 23.2082 7.90443 23.2357 7.95938C23.2357 7.98685 23.2357 7.98685 23.2357 8.01432C23.2357 8.06927 23.2357 8.09675 23.2632 8.15169C23.2632 8.17917 23.2907 8.20664 23.2907 8.23412C23.2907 8.26159 23.3181 8.31654 23.3181 8.34401C23.3456 8.39896 23.3731 8.45391 23.4006 8.50886L42.2478 35.461C42.55 35.9006 43.1545 36.0105 43.5941 35.7082C43.8139 35.5434 43.9512 35.3236 43.9787 35.0763C44.0337 34.8291 43.9787 34.5818 43.8139 34.362L36.4508 23.8119C38.319 22.2184 39.5828 20.048 40.0224 17.6028C40.517 14.8279 39.8851 12.053 38.2916 9.74519C34.9672 4.9647 28.4009 3.81078 23.6478 7.13515ZM36.6981 10.8167C38.0168 12.6849 38.5113 14.9928 38.1267 17.2456C37.7695 19.1963 36.808 20.9272 35.3518 22.191L25.571 8.17917C29.335 6.14608 34.1704 7.21757 36.6981 10.8167Z" fill="black"/>
</svg>
