<svg width="272" height="165" viewBox="0 0 272 165" fill="none" xmlns="http://www.w3.org/2000/svg">
<path d="M4.92906 129.272C3.82506 129.272 3.08906 128.104 3.08906 125.912C3.08906 123.736 3.82506 122.568 4.92906 122.568C6.01706 122.568 6.76906 123.736 6.76906 125.912C6.76906 128.104 6.01706 129.272 4.92906 129.272ZM4.92906 120.664C2.68906 120.664 1.05706 122.68 1.05706 125.912C1.05706 129.16 2.68906 131.192 4.92906 131.192C7.15306 131.192 8.80106 129.16 8.80106 125.912C8.80106 122.68 7.15306 120.664 4.92906 120.664ZM14.6571 125.192H12.5131V119.64H10.4011V134.376H12.5131V126.936H14.6571V125.192ZM24.8798 126.408C22.5438 125.64 21.4558 123.912 21.4238 122.184H24.3358V120.52H16.3198V122.184H19.2798C19.2478 124.008 18.1598 125.88 15.7598 126.648L16.8318 128.296C18.5438 127.736 19.7278 126.584 20.3838 125.144C21.0558 126.456 22.1758 127.512 23.8078 128.024L24.8798 126.408ZM17.9038 130.856H25.8078V134.392H27.9358V129.176H17.9038V130.856ZM25.8078 119.64V128.52H27.9358V119.64H25.8078ZM43.1308 120.568H40.0108V119.528H37.8988V120.568H34.7628V121.96H43.1308V120.568ZM37.3548 124.168C37.3548 123.752 37.9468 123.544 38.9548 123.544C39.9628 123.544 40.5388 123.752 40.5388 124.168C40.5388 124.6 39.9628 124.824 38.9548 124.824C37.9468 124.824 37.3548 124.6 37.3548 124.168ZM43.4988 126.344C42.3788 126.472 41.1948 126.568 40.0108 126.632V126.04C41.5788 125.848 42.5388 125.176 42.5388 124.168C42.5388 122.968 41.1468 122.248 38.9548 122.248C36.7628 122.248 35.3548 122.968 35.3548 124.168C35.3548 125.176 36.3148 125.848 37.8988 126.04V126.712C36.6348 126.744 35.4508 126.744 34.3948 126.744L34.6028 128.184C37.1468 128.184 40.5548 128.152 43.6428 127.608L43.4988 126.344ZM38.4588 132.168H46.2508V128.84H36.3468V130.232H44.1708V130.872H36.3628V134.264H46.7628V132.872H38.4588V132.168ZM46.2508 123.112V119.624H44.1388V128.312H46.2508V124.84H48.1068V123.112H46.2508ZM55.9136 132.792C53.9456 132.792 52.9376 132.456 52.9376 131.688C52.9376 130.92 53.9456 130.568 55.9136 130.568C57.8816 130.568 58.8896 130.92 58.8896 131.688C58.8896 132.456 57.8816 132.792 55.9136 132.792ZM55.9136 128.968C52.7296 128.968 50.8096 129.944 50.8096 131.688C50.8096 133.416 52.7296 134.392 55.9136 134.392C59.0976 134.392 61.0336 133.416 61.0336 131.688C61.0336 129.944 59.0976 128.968 55.9136 128.968ZM57.0176 126.568V125.352H61.1136V123.672H53.0176V121.944H61.0336V120.264H50.9216V125.352H54.9056V126.568H49.3056V128.248H62.6336V126.568H57.0176ZM71.7966 131.832H79.8606V128.04H69.6846V129.592H77.7806V130.376H69.7006V134.264H80.2446V132.68H71.7966V131.832ZM75.8766 125.608V124.68H79.9246V123.032H71.9246V121.784H79.8126V120.136H69.8286V124.68H73.7646V125.608H68.1646V127.272H81.4766V125.608H75.8766ZM86.8353 129.272C85.7313 129.272 84.9953 128.104 84.9953 125.912C84.9953 123.736 85.7313 122.568 86.8353 122.568C87.9233 122.568 88.6753 123.736 88.6753 125.912C88.6753 128.104 87.9233 129.272 86.8353 129.272ZM86.8353 120.664C84.5953 120.664 82.9633 122.68 82.9633 125.912C82.9633 129.16 84.5953 131.192 86.8353 131.192C89.0593 131.192 90.7073 129.16 90.7073 125.912C90.7073 122.68 89.0593 120.664 86.8353 120.664ZM96.5633 125.192H94.4193V119.64H92.3073V134.376H94.4193V126.936H96.5633V125.192ZM101.106 124.504H107.41V126.568H101.106V124.504ZM105.314 130.952V128.248H109.49V120.552H107.41V122.84H101.106V120.552H99.0101V128.248H103.202V130.952H97.6021V132.664H110.946V130.952H105.314ZM113.137 121.16V122.84H118.049C117.745 126.104 116.113 128.408 112.353 130.216L113.457 131.88C118.689 129.352 120.209 125.672 120.209 121.16H113.137ZM122.465 119.624V134.36H124.593V119.624H122.465ZM136.672 122.04H128.704V125.56H139.008V124.136H130.784V123.368H138.752V119.896H128.672V121.32H136.672V122.04ZM130.656 132.024H138.8V128.52H128.544V129.944H136.704V130.696H128.56V134.248H139.2V132.824H130.656V132.024ZM127.04 126.264V127.784H140.384V126.264H127.04ZM148.603 123.224C148.603 122.328 149.291 121.816 150.299 121.816C151.307 121.816 152.027 122.328 152.027 123.224C152.027 124.12 151.307 124.632 150.299 124.632C149.291 124.632 148.603 124.12 148.603 123.224ZM154.715 126.872C153.659 127.032 152.507 127.112 151.371 127.176V126.12C152.939 125.768 153.979 124.664 153.979 123.224C153.979 121.464 152.443 120.232 150.299 120.232C148.171 120.232 146.635 121.464 146.635 123.224C146.635 124.68 147.691 125.784 149.259 126.12V127.256C148.043 127.288 146.875 127.288 145.867 127.288L146.123 128.968C148.555 128.968 151.867 128.92 154.843 128.36L154.715 126.872ZM149.899 129.928H147.787V134.12H158.091V132.44H149.899V129.928ZM157.595 124.264V119.64H155.483V130.888H157.595V126.008H159.451V124.264H157.595ZM166.089 128.776H168.665V131.032H166.089V128.776ZM170.745 131.032V128.776H172.809V127.096H164.265V125.48H172.473V120.584H162.153V122.264H170.393V123.832H162.169V128.776H164.009V131.032H160.617V132.76H173.977V131.032H170.745ZM179.608 129.64C178.616 129.64 177.88 128.968 177.88 127.848C177.88 126.728 178.616 126.04 179.608 126.04C180.6 126.04 181.32 126.728 181.32 127.832C181.32 128.968 180.6 129.64 179.608 129.64ZM179.608 124.328C177.464 124.328 175.864 125.784 175.864 127.832C175.864 129.912 177.464 131.368 179.608 131.368C181.736 131.368 183.32 129.912 183.32 127.832C183.32 125.784 181.736 124.328 179.608 124.328ZM180.648 119.896H178.536V121.816H175.272V123.496H183.848V121.816H180.648V119.896ZM189.032 125.4H186.92V119.64H184.808V134.376H186.92V127.144H189.032V125.4ZM195.767 122.792H198.807V121.048H190.551V122.792H193.623V123.608C193.623 126.12 192.423 128.824 189.959 129.928L191.159 131.608C192.887 130.824 194.071 129.208 194.727 127.288C195.383 129.064 196.551 130.504 198.263 131.24L199.415 129.576C196.951 128.552 195.767 126.008 195.767 123.608V122.792ZM200.167 119.64V134.376H202.279V119.64H200.167ZM211.09 123.8C211.09 122.712 211.89 122.072 212.978 122.072C214.066 122.072 214.866 122.712 214.866 123.8C214.866 124.872 214.066 125.512 212.978 125.512C211.89 125.512 211.09 124.872 211.09 123.8ZM216.898 123.8C216.898 121.784 215.218 120.344 212.978 120.344C210.738 120.344 209.058 121.784 209.058 123.8C209.058 125.8 210.738 127.24 212.978 127.24C215.218 127.24 216.898 125.8 216.898 123.8ZM212.29 128.312H210.242V134.008H211.058C212.498 134.008 213.65 133.928 214.866 133.512L214.578 131.848C213.842 132.088 213.074 132.216 212.29 132.28V128.312ZM218.034 132.968C217.474 132.968 217.058 132.76 217.058 132.312C217.058 131.88 217.474 131.672 218.034 131.672C218.61 131.672 219.01 131.88 219.01 132.312C219.01 132.76 218.61 132.968 218.034 132.968ZM218.034 130.248C216.354 130.248 215.186 131.048 215.186 132.312C215.186 133.592 216.354 134.392 218.034 134.392C219.714 134.392 220.882 133.592 220.882 132.312C220.882 131.048 219.714 130.248 218.034 130.248ZM219.074 127.32H217.026V128.36H214.338V129.88H221.714V128.36H219.074V127.32ZM220.53 122.68V119.64H218.418V126.888H220.53V124.424H222.482V122.68H220.53ZM227.777 122.184C228.881 122.184 229.713 122.856 229.713 123.992C229.713 125.128 228.881 125.784 227.777 125.784C226.657 125.784 225.841 125.128 225.841 123.992C225.841 122.856 226.657 122.184 227.777 122.184ZM227.777 127.56C230.033 127.56 231.761 126.072 231.761 123.992C231.761 121.912 230.033 120.424 227.777 120.424C225.505 120.424 223.777 121.912 223.777 123.992C223.777 126.072 225.505 127.56 227.777 127.56ZM234.225 128.488H232.129V129.016C232.129 130.12 231.649 131.416 230.449 132.296C229.297 131.464 228.833 130.216 228.833 129.016V128.488H226.785V129.016C226.785 130.472 225.985 131.976 224.065 132.664L225.105 134.184C226.433 133.704 227.297 132.824 227.809 131.72C228.289 132.872 229.121 133.832 230.481 134.328C231.809 133.8 232.673 132.808 233.153 131.672C233.649 132.808 234.529 133.704 235.905 134.184L236.945 132.664C235.009 132.024 234.225 130.584 234.225 129.016V128.488ZM235.265 122.792V119.64H233.153V127.864H235.265V124.504H237.217V122.792H235.265ZM242.415 129.272C241.343 129.272 240.623 128.104 240.623 125.912C240.623 123.736 241.343 122.568 242.415 122.568C243.503 122.568 244.223 123.736 244.223 125.912C244.223 128.104 243.503 129.272 242.415 129.272ZM248.639 119.624V124.936H246.175C245.887 122.28 244.399 120.664 242.415 120.664C240.223 120.664 238.607 122.68 238.607 125.912C238.607 129.16 240.223 131.192 242.415 131.192C244.463 131.192 245.967 129.464 246.191 126.648H248.639V134.408H250.751V119.624H248.639ZM258.142 128.136C258.654 128.232 259.182 128.28 259.758 128.28C260.334 128.28 260.878 128.232 261.39 128.136V130.952H258.142V128.136ZM259.758 122.024C261.806 122.024 263.182 122.856 263.182 124.328C263.182 125.784 261.806 126.632 259.758 126.632C257.71 126.632 256.35 125.784 256.35 124.328C256.35 122.856 257.71 122.024 259.758 122.024ZM263.486 130.952V127.352C264.59 126.664 265.262 125.608 265.262 124.328C265.262 121.912 262.942 120.36 259.758 120.36C256.59 120.36 254.27 121.912 254.27 124.328C254.254 125.608 254.926 126.664 256.046 127.352V130.952H253.102V132.664H266.446V130.952H263.486ZM270.381 129.208H268.477L268.077 121.576H270.781L270.381 129.208ZM268.045 131.88C268.045 131.389 268.178 131.048 268.445 130.856C268.711 130.653 269.037 130.552 269.421 130.552C269.794 130.552 270.114 130.653 270.381 130.856C270.647 131.048 270.781 131.389 270.781 131.88C270.781 132.349 270.647 132.691 270.381 132.904C270.114 133.107 269.794 133.208 269.421 133.208C269.037 133.208 268.711 133.107 268.445 132.904C268.178 132.691 268.045 132.349 268.045 131.88Z" fill="black"/>
<path d="M59.9092 153.124V163.912H60.8932V153.124H59.9092ZM55.2172 153.952C53.6212 153.952 52.4812 155.416 52.4812 157.708C52.4812 160 53.6212 161.464 55.2172 161.464C56.8132 161.464 57.9532 160 57.9532 157.708C57.9532 155.416 56.8132 153.952 55.2172 153.952ZM55.2172 154.84C56.2612 154.84 57.0052 155.968 57.0052 157.708C57.0052 159.46 56.2612 160.588 55.2172 160.588C54.1612 160.588 53.4172 159.46 53.4172 157.708C53.4172 155.968 54.1612 154.84 55.2172 154.84ZM66.0043 160.588C64.9723 160.588 64.2523 159.46 64.2523 157.708C64.2523 155.968 64.9723 154.84 66.0043 154.84C67.0243 154.84 67.7443 155.968 67.7443 157.708C67.7443 159.46 67.0243 160.588 66.0043 160.588ZM71.0083 153.124V157.228H68.6683C68.5123 155.212 67.4563 153.952 66.0043 153.952C64.4323 153.952 63.3163 155.416 63.3163 157.708C63.3163 160 64.4323 161.464 66.0043 161.464C67.5043 161.464 68.5723 160.144 68.6683 158.032H71.0083V163.912H71.9923V153.124H71.0083ZM77.9313 154.048H76.9473V155.98C76.9473 157.972 75.7233 160.048 74.1633 160.828L74.7633 161.608C75.9753 160.96 76.9713 159.604 77.4393 158.008C77.9313 159.52 78.9153 160.804 80.1393 161.416L80.7153 160.636C79.1553 159.892 77.9313 157.936 77.9313 155.98V154.048ZM82.0473 153.124V156.772H79.5513V157.576H82.0473V163.9H83.0313V153.124H82.0473ZM94.7156 153.94H92.1236V153.016H91.1396V153.94H88.5356V154.648H94.7156V153.94ZM90.0476 156.4C90.0476 155.92 90.6596 155.632 91.6316 155.632C92.5916 155.632 93.2036 155.92 93.2036 156.4C93.2036 156.88 92.5916 157.18 91.6316 157.18C90.6596 157.18 90.0476 156.88 90.0476 156.4ZM95.0396 158.188C94.1156 158.308 93.1076 158.392 92.1236 158.44V157.804C93.3596 157.696 94.1396 157.192 94.1396 156.4C94.1396 155.512 93.1436 154.984 91.6316 154.984C90.0956 154.984 89.1116 155.512 89.1116 156.4C89.1116 157.204 89.8916 157.708 91.1396 157.804V158.464C90.1076 158.5 89.1116 158.5 88.2716 158.5L88.3796 159.232C90.2636 159.232 92.8076 159.22 95.0996 158.812L95.0396 158.188ZM90.6836 162.148H96.6596V159.952H89.6876V160.648H95.6876V161.488H89.7236V163.768H97.0676V163.06H90.6836V162.148ZM96.6596 155.872V153.124H95.6756V159.484H96.6596V156.7H98.2436V155.872H96.6596ZM104.231 163.12C102.527 163.12 101.531 162.7 101.531 161.944C101.531 161.188 102.527 160.768 104.231 160.768C105.911 160.768 106.907 161.188 106.907 161.944C106.907 162.7 105.911 163.12 104.231 163.12ZM104.231 160C101.927 160 100.535 160.696 100.535 161.944C100.535 163.192 101.927 163.888 104.231 163.888C106.511 163.888 107.903 163.192 107.903 161.944C107.903 160.696 106.511 160 104.231 160ZM104.723 158.44V157.192H107.963V156.4H101.567V154.408H107.891V153.616H100.583V157.192H103.739V158.44H99.3587V159.232H109.103V158.44H104.723ZM115.258 154.048C117.022 154.048 118.03 154.456 118.03 155.176C118.03 155.896 117.022 156.304 115.258 156.304C113.494 156.304 112.486 155.896 112.486 155.176C112.486 154.456 113.494 154.048 115.258 154.048ZM115.258 157.036C117.622 157.036 119.038 156.388 119.038 155.176C119.038 153.964 117.622 153.304 115.258 153.304C112.894 153.304 111.478 153.964 111.478 155.176C111.478 156.388 112.894 157.036 115.258 157.036ZM112.558 161.908H118.882V159.484H111.562V160.228H117.91V161.188H111.598V163.768H119.206V163H112.558V161.908ZM110.386 157.768V158.56H120.13V157.768H110.386ZM128.178 155.044H130.566V154.228H124.746V155.044H127.206V156.412C127.206 158.236 125.91 160.276 124.374 161.044L124.95 161.824C126.162 161.2 127.206 159.832 127.698 158.26C128.19 159.7 129.198 160.96 130.398 161.56L130.962 160.768C129.402 160.036 128.178 158.128 128.178 156.412V155.044ZM134.61 157.468H132.834V153.136H131.85V163.888H132.834V158.296H134.61V157.468ZM138.785 154.144H137.837V156.196C137.837 158.044 136.949 159.976 135.473 160.84L136.085 161.572C137.153 160.912 137.933 159.7 138.317 158.272C138.701 159.58 139.421 160.72 140.441 161.344L141.005 160.576C139.589 159.712 138.785 157.888 138.785 156.16V154.144ZM141.617 156.988H139.841V157.804H141.617V163.36H142.541V153.364H141.617V156.988ZM143.801 153.124V163.888H144.737V153.124H143.801ZM150.112 160.672C149.116 160.672 148.396 159.976 148.396 159.004C148.396 158.044 149.116 157.348 150.112 157.348C151.108 157.348 151.84 158.044 151.84 159.004C151.84 159.976 151.108 160.672 150.112 160.672ZM150.112 156.532C148.576 156.532 147.46 157.552 147.46 159.004C147.46 160.48 148.576 161.488 150.112 161.488C151.672 161.488 152.776 160.48 152.776 159.004C152.776 157.552 151.672 156.532 150.112 156.532ZM150.592 153.232H149.608V154.864H146.872V155.668H153.328V154.864H150.592V153.232ZM154.456 153.124V163.888H155.44V153.124H154.456ZM162.948 161.92H169.272V159.496H161.952V160.252H168.3V161.2H161.988V163.756H169.596V163H162.948V161.92ZM166.152 157.804V156.784H169.368V155.992H163.068V154.324H169.26V153.532H162.084V156.784H165.168V157.804H160.776V158.596H170.52V157.804H166.152ZM174.695 160.588C173.651 160.588 172.919 159.46 172.919 157.708C172.919 155.968 173.651 154.84 174.695 154.84C175.727 154.84 176.459 155.968 176.459 157.708C176.459 159.46 175.727 160.588 174.695 160.588ZM174.695 153.952C173.111 153.952 171.983 155.416 171.983 157.708C171.983 160 173.111 161.464 174.695 161.464C176.279 161.464 177.395 160 177.395 157.708C177.395 155.416 176.279 153.952 174.695 153.952ZM181.883 157.42H180.107V153.136H179.123V163.888H180.107V158.248H181.883V157.42ZM185.026 161.968H191.35V159.568H184.03V160.312H190.378V161.248H184.066V163.768H191.674V163.012H185.026V161.968ZM185.122 155.056H190.354V156.088H185.122V155.056ZM188.218 157.876V156.844H191.326V153.292H190.354V154.312H185.122V153.292H184.15V156.844H187.234V157.876H182.854V158.668H192.598V157.876H188.218ZM194.218 154.288V155.104H196.198C196.09 157.264 195.466 159.256 193.87 160.912L194.638 161.464C196.594 159.4 197.134 156.88 197.134 154.288H194.218ZM197.494 154.288V155.104H199.15C199.066 157.384 198.586 159.736 196.93 161.644L197.722 162.184C199.702 159.844 200.074 156.88 200.074 154.288H197.494ZM203.962 157.564H202.366V153.124H201.382V163.888H202.366V158.38H203.962V157.564ZM208.317 159.16C208.761 159.268 209.277 159.328 209.805 159.328C210.345 159.328 210.861 159.268 211.317 159.16V161.692H208.317V159.16ZM209.805 154.576C211.533 154.576 212.781 155.368 212.781 156.568C212.781 157.768 211.533 158.56 209.805 158.56C208.077 158.56 206.841 157.768 206.841 156.568C206.841 155.368 208.077 154.576 209.805 154.576ZM212.301 161.692V158.776C213.189 158.308 213.717 157.54 213.717 156.568C213.717 154.888 212.097 153.808 209.805 153.808C207.525 153.808 205.893 154.888 205.893 156.568C205.893 157.54 206.433 158.32 207.333 158.788V161.692H204.933V162.508H214.713V161.692H212.301ZM217.028 160.588V160.264C217.028 159.96 217.056 159.7 217.112 159.484C217.176 159.26 217.28 159.052 217.424 158.86C217.576 158.66 217.78 158.448 218.036 158.224C218.34 157.968 218.58 157.752 218.756 157.576C218.932 157.392 219.056 157.216 219.128 157.048C219.2 156.88 219.236 156.676 219.236 156.436C219.236 156.052 219.112 155.756 218.864 155.548C218.616 155.34 218.256 155.236 217.784 155.236C217.392 155.236 217.044 155.288 216.74 155.392C216.436 155.488 216.144 155.604 215.864 155.74L215.492 154.9C215.812 154.732 216.164 154.592 216.548 154.48C216.94 154.368 217.376 154.312 217.856 154.312C218.616 154.312 219.204 154.5 219.62 154.876C220.036 155.252 220.244 155.764 220.244 156.412C220.244 156.772 220.184 157.08 220.064 157.336C219.952 157.584 219.788 157.816 219.572 158.032C219.364 158.24 219.116 158.464 218.828 158.704C218.556 158.928 218.352 159.124 218.216 159.292C218.08 159.46 217.988 159.628 217.94 159.796C217.892 159.964 217.868 160.16 217.868 160.384V160.588H217.028ZM216.752 162.352C216.752 162.056 216.82 161.848 216.956 161.728C217.1 161.608 217.28 161.548 217.496 161.548C217.696 161.548 217.868 161.608 218.012 161.728C218.156 161.848 218.228 162.056 218.228 162.352C218.228 162.64 218.156 162.848 218.012 162.976C217.868 163.104 217.696 163.168 217.496 163.168C217.28 163.168 217.1 163.104 216.956 162.976C216.82 162.848 216.752 162.64 216.752 162.352Z" fill="black"/>
<path d="M136.246 62.7447C120.875 62.7447 108.358 50.2279 108.358 34.8565C108.358 34.022 109.061 33.3193 109.895 33.3193H162.597C163.432 33.3193 164.134 34.022 164.134 34.8565C164.134 50.2279 151.618 62.7447 136.246 62.7447ZM111.476 36.3936C112.267 49.3495 123.071 59.6704 136.246 59.6704C149.422 59.6704 160.226 49.3495 161.016 36.3936H111.476Z" fill="black"/>
<path d="M136.246 70.0796C135.412 70.0796 134.709 69.3769 134.709 68.5424V61.208C134.709 60.3736 135.412 59.6709 136.246 59.6709C137.081 59.6709 137.783 60.3736 137.783 61.208V68.5424C137.783 69.3769 137.081 70.0796 136.246 70.0796Z" fill="black"/>
<path d="M148.587 70.0792H123.905C123.071 70.0792 122.368 69.3765 122.368 68.542C122.368 67.7076 123.071 67.0049 123.905 67.0049H148.587C149.422 67.0049 150.125 67.7076 150.125 68.542C150.125 69.3765 149.422 70.0792 148.587 70.0792Z" fill="black"/>
<path d="M157.283 36.3929H115.209C114.551 36.3929 113.936 35.9537 113.716 35.295C113.057 33.143 112.75 30.8592 112.75 28.5754C112.75 15.6195 123.29 5.0791 136.246 5.0791C136.29 5.0791 136.334 5.0791 136.378 5.0791C136.817 5.0791 137.256 5.25478 137.52 5.60612C137.827 5.91355 137.959 6.35274 137.915 6.79192C137.871 7.18718 137.871 7.58245 137.871 7.97772C137.871 14.829 143.449 20.4066 150.3 20.4066C152.276 20.4066 154.165 19.9674 155.922 19.0891C156.317 18.9134 156.756 18.8695 157.151 19.0012C157.547 19.133 157.854 19.4843 158.03 19.8796C159.172 22.6904 159.743 25.6329 159.743 28.6194C159.743 30.9031 159.435 33.1869 158.776 35.3389C158.557 35.9537 157.986 36.3929 157.283 36.3929ZM116.395 33.3186H156.141C156.493 31.7815 156.712 30.2004 156.712 28.5754C156.712 26.4674 156.405 24.4471 155.79 22.4708C154.077 23.1296 152.233 23.437 150.388 23.437C141.912 23.437 135.017 16.6296 134.885 8.19731C124.213 8.94392 115.824 17.8154 115.824 28.5754C115.824 30.2004 116 31.7815 116.395 33.3186Z" fill="black"/>
</svg>
