<svg width="70" height="75" viewBox="0 0 70 75" fill="none" xmlns="http://www.w3.org/2000/svg">
<path d="M35.2463 62.7447C19.8749 62.7447 7.35812 50.2279 7.35812 34.8565C7.35812 34.022 8.06081 33.3193 8.89526 33.3193H61.5973C62.4318 33.3193 63.1345 34.022 63.1345 34.8565C63.1345 50.2279 50.6177 62.7447 35.2463 62.7447ZM10.4763 36.3936C11.2669 49.3495 22.0708 59.6704 35.2463 59.6704C48.4218 59.6704 59.2257 49.3495 60.0163 36.3936H10.4763Z" fill="black"/>
<path d="M35.2463 70.0796C34.4118 70.0796 33.7091 69.3769 33.7091 68.5424V61.208C33.7091 60.3736 34.4118 59.6709 35.2463 59.6709C36.0807 59.6709 36.7834 60.3736 36.7834 61.208V68.5424C36.7834 69.3769 36.0807 70.0796 35.2463 70.0796Z" fill="black"/>
<path d="M47.5874 70.0792H22.9052C22.0708 70.0792 21.3681 69.3765 21.3681 68.542C21.3681 67.7076 22.0708 67.0049 22.9052 67.0049H47.5874C48.4218 67.0049 49.1245 67.7076 49.1245 68.542C49.1245 69.3765 48.4218 70.0792 47.5874 70.0792Z" fill="black"/>
<path d="M56.2832 36.3929H14.2094C13.5506 36.3929 12.9357 35.9537 12.7161 35.295C12.0574 33.143 11.7499 30.8592 11.7499 28.5754C11.7499 15.6195 22.2903 5.0791 35.2463 5.0791C35.2902 5.0791 35.3341 5.0791 35.378 5.0791C35.8172 5.0791 36.2564 5.25478 36.5199 5.60612C36.8273 5.91355 36.9591 6.35274 36.9152 6.79192C36.8713 7.18718 36.8713 7.58245 36.8713 7.97772C36.8713 14.829 42.4489 20.4066 49.3002 20.4066C51.2765 20.4066 53.165 19.9674 54.9217 19.0891C55.317 18.9134 55.7562 18.8695 56.1514 19.0012C56.5467 19.133 56.8541 19.4843 57.0298 19.8796C58.1717 22.6904 58.7426 25.6329 58.7426 28.6194C58.7426 30.9031 58.4352 33.1869 57.7764 35.3389C57.5568 35.9537 56.9859 36.3929 56.2832 36.3929ZM15.3952 33.3186H55.1413C55.4927 31.7815 55.7122 30.2004 55.7122 28.5754C55.7122 26.4674 55.4048 24.4471 54.79 22.4708C53.0771 23.1296 51.2326 23.437 49.388 23.437C40.9117 23.437 34.0166 16.6296 33.8848 8.19731C23.2126 8.94392 14.8242 17.8154 14.8242 28.5754C14.8242 30.2004 14.9999 31.7815 15.3952 33.3186Z" fill="black"/>
</svg>
