<svg width="272" height="165" viewBox="0 0 272 165" fill="none" xmlns="http://www.w3.org/2000/svg">
<path d="M4.92906 129.272C3.82506 129.272 3.08906 128.104 3.08906 125.912C3.08906 123.736 3.82506 122.568 4.92906 122.568C6.01706 122.568 6.76906 123.736 6.76906 125.912C6.76906 128.104 6.01706 129.272 4.92906 129.272ZM4.92906 120.664C2.68906 120.664 1.05706 122.68 1.05706 125.912C1.05706 129.16 2.68906 131.192 4.92906 131.192C7.15306 131.192 8.80106 129.16 8.80106 125.912C8.80106 122.68 7.15306 120.664 4.92906 120.664ZM14.6571 125.192H12.5131V119.64H10.4011V134.376H12.5131V126.936H14.6571V125.192ZM24.8798 126.408C22.5438 125.64 21.4558 123.912 21.4238 122.184H24.3358V120.52H16.3198V122.184H19.2798C19.2478 124.008 18.1598 125.88 15.7598 126.648L16.8318 128.296C18.5438 127.736 19.7278 126.584 20.3838 125.144C21.0558 126.456 22.1758 127.512 23.8078 128.024L24.8798 126.408ZM17.9038 130.856H25.8078V134.392H27.9358V129.176H17.9038V130.856ZM25.8078 119.64V128.52H27.9358V119.64H25.8078ZM43.1308 120.568H40.0108V119.528H37.8988V120.568H34.7628V121.96H43.1308V120.568ZM37.3548 124.168C37.3548 123.752 37.9468 123.544 38.9548 123.544C39.9628 123.544 40.5388 123.752 40.5388 124.168C40.5388 124.6 39.9628 124.824 38.9548 124.824C37.9468 124.824 37.3548 124.6 37.3548 124.168ZM43.4988 126.344C42.3788 126.472 41.1948 126.568 40.0108 126.632V126.04C41.5788 125.848 42.5388 125.176 42.5388 124.168C42.5388 122.968 41.1468 122.248 38.9548 122.248C36.7628 122.248 35.3548 122.968 35.3548 124.168C35.3548 125.176 36.3148 125.848 37.8988 126.04V126.712C36.6348 126.744 35.4508 126.744 34.3948 126.744L34.6028 128.184C37.1468 128.184 40.5548 128.152 43.6428 127.608L43.4988 126.344ZM38.4588 132.168H46.2508V128.84H36.3468V130.232H44.1708V130.872H36.3628V134.264H46.7628V132.872H38.4588V132.168ZM46.2508 123.112V119.624H44.1388V128.312H46.2508V124.84H48.1068V123.112H46.2508ZM55.9136 132.792C53.9456 132.792 52.9376 132.456 52.9376 131.688C52.9376 130.92 53.9456 130.568 55.9136 130.568C57.8816 130.568 58.8896 130.92 58.8896 131.688C58.8896 132.456 57.8816 132.792 55.9136 132.792ZM55.9136 128.968C52.7296 128.968 50.8096 129.944 50.8096 131.688C50.8096 133.416 52.7296 134.392 55.9136 134.392C59.0976 134.392 61.0336 133.416 61.0336 131.688C61.0336 129.944 59.0976 128.968 55.9136 128.968ZM57.0176 126.568V125.352H61.1136V123.672H53.0176V121.944H61.0336V120.264H50.9216V125.352H54.9056V126.568H49.3056V128.248H62.6336V126.568H57.0176ZM71.7966 131.832H79.8606V128.04H69.6846V129.592H77.7806V130.376H69.7006V134.264H80.2446V132.68H71.7966V131.832ZM75.8766 125.608V124.68H79.9246V123.032H71.9246V121.784H79.8126V120.136H69.8286V124.68H73.7646V125.608H68.1646V127.272H81.4766V125.608H75.8766ZM86.8353 129.272C85.7313 129.272 84.9953 128.104 84.9953 125.912C84.9953 123.736 85.7313 122.568 86.8353 122.568C87.9233 122.568 88.6753 123.736 88.6753 125.912C88.6753 128.104 87.9233 129.272 86.8353 129.272ZM86.8353 120.664C84.5953 120.664 82.9633 122.68 82.9633 125.912C82.9633 129.16 84.5953 131.192 86.8353 131.192C89.0593 131.192 90.7073 129.16 90.7073 125.912C90.7073 122.68 89.0593 120.664 86.8353 120.664ZM96.5633 125.192H94.4193V119.64H92.3073V134.376H94.4193V126.936H96.5633V125.192ZM101.106 124.504H107.41V126.568H101.106V124.504ZM105.314 130.952V128.248H109.49V120.552H107.41V122.84H101.106V120.552H99.0101V128.248H103.202V130.952H97.6021V132.664H110.946V130.952H105.314ZM113.137 121.16V122.84H118.049C117.745 126.104 116.113 128.408 112.353 130.216L113.457 131.88C118.689 129.352 120.209 125.672 120.209 121.16H113.137ZM122.465 119.624V134.36H124.593V119.624H122.465ZM136.672 122.04H128.704V125.56H139.008V124.136H130.784V123.368H138.752V119.896H128.672V121.32H136.672V122.04ZM130.656 132.024H138.8V128.52H128.544V129.944H136.704V130.696H128.56V134.248H139.2V132.824H130.656V132.024ZM127.04 126.264V127.784H140.384V126.264H127.04ZM151.627 120.776H149.515V122.92C149.515 125.784 148.299 128.632 145.723 129.736L146.987 131.48C148.747 130.648 149.947 129.064 150.603 127.096C151.259 128.904 152.395 130.36 154.091 131.128L155.291 129.416C152.795 128.344 151.627 125.656 151.627 122.92V120.776ZM156.011 119.624V134.408H158.123V119.624H156.011ZM169.433 126.376C167.113 125.624 166.105 123.88 166.057 122.184H168.937V120.504H160.969V122.184H163.897C163.849 124.008 162.809 125.848 160.409 126.632L161.513 128.28C163.209 127.72 164.361 126.584 165.017 125.16C165.657 126.456 166.761 127.496 168.361 128.008L169.433 126.376ZM162.393 130.856H170.121V134.392H172.233V129.176H162.393V130.856ZM174.185 123.192H172.233V119.64H170.121V128.52H172.233V124.936H174.185V123.192ZM179.608 129.64C178.616 129.64 177.88 128.968 177.88 127.848C177.88 126.728 178.616 126.04 179.608 126.04C180.6 126.04 181.32 126.728 181.32 127.832C181.32 128.968 180.6 129.64 179.608 129.64ZM179.608 124.328C177.464 124.328 175.864 125.784 175.864 127.832C175.864 129.912 177.464 131.368 179.608 131.368C181.736 131.368 183.32 129.912 183.32 127.832C183.32 125.784 181.736 124.328 179.608 124.328ZM180.648 119.896H178.536V121.816H175.272V123.496H183.848V121.816H180.648V119.896ZM189.032 125.4H186.92V119.64H184.808V134.376H186.92V127.144H189.032V125.4ZM195.767 122.792H198.807V121.048H190.551V122.792H193.623V123.608C193.623 126.12 192.423 128.824 189.959 129.928L191.159 131.608C192.887 130.824 194.071 129.208 194.727 127.288C195.383 129.064 196.551 130.504 198.263 131.24L199.415 129.576C196.951 128.552 195.767 126.008 195.767 123.608V122.792ZM200.167 119.64V134.376H202.279V119.64H200.167ZM211.09 123.8C211.09 122.712 211.89 122.072 212.978 122.072C214.066 122.072 214.866 122.712 214.866 123.8C214.866 124.872 214.066 125.512 212.978 125.512C211.89 125.512 211.09 124.872 211.09 123.8ZM216.898 123.8C216.898 121.784 215.218 120.344 212.978 120.344C210.738 120.344 209.058 121.784 209.058 123.8C209.058 125.8 210.738 127.24 212.978 127.24C215.218 127.24 216.898 125.8 216.898 123.8ZM212.29 128.312H210.242V134.008H211.058C212.498 134.008 213.65 133.928 214.866 133.512L214.578 131.848C213.842 132.088 213.074 132.216 212.29 132.28V128.312ZM218.034 132.968C217.474 132.968 217.058 132.76 217.058 132.312C217.058 131.88 217.474 131.672 218.034 131.672C218.61 131.672 219.01 131.88 219.01 132.312C219.01 132.76 218.61 132.968 218.034 132.968ZM218.034 130.248C216.354 130.248 215.186 131.048 215.186 132.312C215.186 133.592 216.354 134.392 218.034 134.392C219.714 134.392 220.882 133.592 220.882 132.312C220.882 131.048 219.714 130.248 218.034 130.248ZM219.074 127.32H217.026V128.36H214.338V129.88H221.714V128.36H219.074V127.32ZM220.53 122.68V119.64H218.418V126.888H220.53V124.424H222.482V122.68H220.53ZM227.777 122.184C228.881 122.184 229.713 122.856 229.713 123.992C229.713 125.128 228.881 125.784 227.777 125.784C226.657 125.784 225.841 125.128 225.841 123.992C225.841 122.856 226.657 122.184 227.777 122.184ZM227.777 127.56C230.033 127.56 231.761 126.072 231.761 123.992C231.761 121.912 230.033 120.424 227.777 120.424C225.505 120.424 223.777 121.912 223.777 123.992C223.777 126.072 225.505 127.56 227.777 127.56ZM234.225 128.488H232.129V129.016C232.129 130.12 231.649 131.416 230.449 132.296C229.297 131.464 228.833 130.216 228.833 129.016V128.488H226.785V129.016C226.785 130.472 225.985 131.976 224.065 132.664L225.105 134.184C226.433 133.704 227.297 132.824 227.809 131.72C228.289 132.872 229.121 133.832 230.481 134.328C231.809 133.8 232.673 132.808 233.153 131.672C233.649 132.808 234.529 133.704 235.905 134.184L236.945 132.664C235.009 132.024 234.225 130.584 234.225 129.016V128.488ZM235.265 122.792V119.64H233.153V127.864H235.265V124.504H237.217V122.792H235.265ZM242.415 129.272C241.343 129.272 240.623 128.104 240.623 125.912C240.623 123.736 241.343 122.568 242.415 122.568C243.503 122.568 244.223 123.736 244.223 125.912C244.223 128.104 243.503 129.272 242.415 129.272ZM248.639 119.624V124.936H246.175C245.887 122.28 244.399 120.664 242.415 120.664C240.223 120.664 238.607 122.68 238.607 125.912C238.607 129.16 240.223 131.192 242.415 131.192C244.463 131.192 245.967 129.464 246.191 126.648H248.639V134.408H250.751V119.624H248.639ZM258.142 128.136C258.654 128.232 259.182 128.28 259.758 128.28C260.334 128.28 260.878 128.232 261.39 128.136V130.952H258.142V128.136ZM259.758 122.024C261.806 122.024 263.182 122.856 263.182 124.328C263.182 125.784 261.806 126.632 259.758 126.632C257.71 126.632 256.35 125.784 256.35 124.328C256.35 122.856 257.71 122.024 259.758 122.024ZM263.486 130.952V127.352C264.59 126.664 265.262 125.608 265.262 124.328C265.262 121.912 262.942 120.36 259.758 120.36C256.59 120.36 254.27 121.912 254.27 124.328C254.254 125.608 254.926 126.664 256.046 127.352V130.952H253.102V132.664H266.446V130.952H263.486ZM270.381 129.208H268.477L268.077 121.576H270.781L270.381 129.208ZM268.045 131.88C268.045 131.389 268.178 131.048 268.445 130.856C268.711 130.653 269.037 130.552 269.421 130.552C269.794 130.552 270.114 130.653 270.381 130.856C270.647 131.048 270.781 131.389 270.781 131.88C270.781 132.349 270.647 132.691 270.381 132.904C270.114 133.107 269.794 133.208 269.421 133.208C269.037 133.208 268.711 133.107 268.445 132.904C268.178 132.691 268.045 132.349 268.045 131.88Z" fill="black"/>
<path d="M47.8076 153.136H46.8236V158.716H47.8076V153.136ZM45.5756 157.732C43.9796 157.264 42.8636 156.028 42.8636 154.648V154.528H45.2996V153.736H39.3956V154.528H41.8556V154.648C41.8556 156.112 40.7516 157.432 39.1316 157.948L39.5996 158.728C40.9076 158.284 41.9156 157.348 42.3716 156.16C42.8636 157.264 43.8596 158.116 45.1196 158.5L45.5756 157.732ZM41.8436 162.988V161.812H47.8196V159.232H40.8476V160H46.8476V161.08H40.8716V163.768H48.1796V162.988H41.8436ZM57.5386 156.616H52.2346V154.42H57.5386V156.616ZM58.5106 153.628H51.2746V157.408H58.5106V153.628ZM52.2346 160.576H51.2506V163.648H58.6906V162.844H52.2346V160.576ZM50.0026 158.632V159.424H54.4786V161.596H55.4626V159.424H59.7826V158.632H50.0026ZM66.6817 159.16C66.9817 157.156 66.9817 155.752 66.9817 154.888V154.3H61.5457V155.104H66.0217C66.0217 155.968 65.9977 157.276 65.6977 159.064L66.6817 159.16ZM64.2097 157.372H63.2377V160.684C62.4337 160.708 61.6417 160.72 60.9577 160.72L61.0657 161.536C62.9737 161.536 65.5057 161.488 67.7377 161.128L67.6777 160.408C66.5857 160.54 65.3857 160.612 64.2097 160.66V157.372ZM71.0377 157.624H69.3217V153.124H68.3377V163.888H69.3217V158.452H71.0377V157.624ZM81.6059 154.264H78.9179V153.028H77.9339V154.264H75.2579V155.056H81.6059V154.264ZM76.7939 157.516C76.7939 156.808 77.4419 156.34 78.4259 156.34C79.4099 156.34 80.0699 156.808 80.0699 157.516C80.0699 158.224 79.4099 158.692 78.4259 158.692C77.4419 158.692 76.7939 158.224 76.7939 157.516ZM81.0059 157.516C81.0059 156.34 79.9619 155.596 78.4259 155.596C76.8899 155.596 75.8579 156.34 75.8579 157.516C75.8579 158.68 76.8899 159.424 78.4259 159.424C79.9619 159.424 81.0059 158.68 81.0059 157.516ZM77.7779 160.996H82.6019V162.952H77.7779V160.996ZM76.8179 163.744H83.5739V160.216H76.8179V163.744ZM85.1699 155.992H83.5739V153.136H82.5899V159.604H83.5739V156.808H85.1699V155.992ZM86.513 154.408V155.212H88.061C87.989 157.216 87.617 159.184 86.285 160.9L87.053 161.332C88.601 159.244 88.901 156.712 88.901 154.408H86.513ZM92.513 157.348H91.133C91.253 156.304 91.277 155.296 91.277 154.408H89.261V155.212H90.425C90.389 157.24 90.137 159.664 88.673 161.584L89.441 162.028C90.305 160.852 90.761 159.496 91.013 158.152H92.513V163.336H93.437V153.4H92.513V157.348ZM94.505 153.124V163.876H95.441V153.124H94.505ZM106.813 153.94H104.221V153.016H103.237V153.94H100.633V154.648H106.813V153.94ZM102.145 156.4C102.145 155.92 102.757 155.632 103.729 155.632C104.689 155.632 105.301 155.92 105.301 156.4C105.301 156.88 104.689 157.18 103.729 157.18C102.757 157.18 102.145 156.88 102.145 156.4ZM107.137 158.188C106.213 158.308 105.205 158.392 104.221 158.44V157.804C105.457 157.696 106.237 157.192 106.237 156.4C106.237 155.512 105.241 154.984 103.729 154.984C102.193 154.984 101.209 155.512 101.209 156.4C101.209 157.204 101.989 157.708 103.237 157.804V158.464C102.205 158.5 101.209 158.5 100.369 158.5L100.477 159.232C102.361 159.232 104.905 159.22 107.197 158.812L107.137 158.188ZM102.781 162.148H108.757V159.952H101.785V160.648H107.785V161.488H101.821V163.768H109.165V163.06H102.781V162.148ZM108.757 155.872V153.124H107.773V159.484H108.757V156.7H110.341V155.872H108.757ZM116.328 163.12C114.624 163.12 113.628 162.7 113.628 161.944C113.628 161.188 114.624 160.768 116.328 160.768C118.008 160.768 119.004 161.188 119.004 161.944C119.004 162.7 118.008 163.12 116.328 163.12ZM116.328 160C114.024 160 112.632 160.696 112.632 161.944C112.632 163.192 114.024 163.888 116.328 163.888C118.608 163.888 120 163.192 120 161.944C120 160.696 118.608 160 116.328 160ZM116.82 158.44V157.192H120.06V156.4H113.664V154.408H119.988V153.616H112.68V157.192H115.836V158.44H111.456V159.232H121.2V158.44H116.82ZM127.355 154.048C129.119 154.048 130.127 154.456 130.127 155.176C130.127 155.896 129.119 156.304 127.355 156.304C125.591 156.304 124.583 155.896 124.583 155.176C124.583 154.456 125.591 154.048 127.355 154.048ZM127.355 157.036C129.719 157.036 131.135 156.388 131.135 155.176C131.135 153.964 129.719 153.304 127.355 153.304C124.991 153.304 123.575 153.964 123.575 155.176C123.575 156.388 124.991 157.036 127.355 157.036ZM124.655 161.908H130.979V159.484H123.659V160.228H130.007V161.188H123.695V163.768H131.303V163H124.655V161.908ZM122.483 157.768V158.56H132.227V157.768H122.483ZM140.276 155.044H142.664V154.228H136.844V155.044H139.304V156.412C139.304 158.236 138.008 160.276 136.472 161.044L137.048 161.824C138.26 161.2 139.304 159.832 139.796 158.26C140.288 159.7 141.296 160.96 142.496 161.56L143.06 160.768C141.5 160.036 140.276 158.128 140.276 156.412V155.044ZM146.708 157.468H144.932V153.136H143.948V163.888H144.932V158.296H146.708V157.468ZM150.883 154.144H149.935V156.196C149.935 158.044 149.047 159.976 147.571 160.84L148.183 161.572C149.251 160.912 150.031 159.7 150.415 158.272C150.799 159.58 151.519 160.72 152.539 161.344L153.103 160.576C151.687 159.712 150.883 157.888 150.883 156.16V154.144ZM153.715 156.988H151.939V157.804H153.715V163.36H154.639V153.364H153.715V156.988ZM155.899 153.124V163.888H156.835V153.124H155.899ZM162.21 160.672C161.214 160.672 160.494 159.976 160.494 159.004C160.494 158.044 161.214 157.348 162.21 157.348C163.206 157.348 163.938 158.044 163.938 159.004C163.938 159.976 163.206 160.672 162.21 160.672ZM162.21 156.532C160.674 156.532 159.558 157.552 159.558 159.004C159.558 160.48 160.674 161.488 162.21 161.488C163.77 161.488 164.874 160.48 164.874 159.004C164.874 157.552 163.77 156.532 162.21 156.532ZM162.69 153.232H161.706V154.864H158.97V155.668H165.426V154.864H162.69V153.232ZM166.554 153.124V163.888H167.538V153.124H166.554ZM175.046 161.92H181.37V159.496H174.05V160.252H180.398V161.2H174.086V163.756H181.694V163H175.046V161.92ZM178.25 157.804V156.784H181.466V155.992H175.166V154.324H181.358V153.532H174.182V156.784H177.266V157.804H172.874V158.596H182.618V157.804H178.25ZM186.793 160.588C185.749 160.588 185.017 159.46 185.017 157.708C185.017 155.968 185.749 154.84 186.793 154.84C187.825 154.84 188.557 155.968 188.557 157.708C188.557 159.46 187.825 160.588 186.793 160.588ZM186.793 153.952C185.209 153.952 184.081 155.416 184.081 157.708C184.081 160 185.209 161.464 186.793 161.464C188.377 161.464 189.493 160 189.493 157.708C189.493 155.416 188.377 153.952 186.793 153.952ZM193.981 157.42H192.205V153.136H191.221V163.888H192.205V158.248H193.981V157.42ZM197.124 161.968H203.448V159.568H196.128V160.312H202.476V161.248H196.164V163.768H203.772V163.012H197.124V161.968ZM197.22 155.056H202.452V156.088H197.22V155.056ZM200.316 157.876V156.844H203.424V153.292H202.452V154.312H197.22V153.292H196.248V156.844H199.332V157.876H194.952V158.668H204.696V157.876H200.316ZM206.315 154.288V155.104H208.295C208.187 157.264 207.563 159.256 205.967 160.912L206.735 161.464C208.691 159.4 209.231 156.88 209.231 154.288H206.315ZM209.591 154.288V155.104H211.247C211.163 157.384 210.683 159.736 209.027 161.644L209.819 162.184C211.799 159.844 212.171 156.88 212.171 154.288H209.591ZM216.059 157.564H214.463V153.124H213.479V163.888H214.463V158.38H216.059V157.564ZM220.414 159.16C220.858 159.268 221.374 159.328 221.902 159.328C222.442 159.328 222.958 159.268 223.414 159.16V161.692H220.414V159.16ZM221.902 154.576C223.63 154.576 224.878 155.368 224.878 156.568C224.878 157.768 223.63 158.56 221.902 158.56C220.174 158.56 218.938 157.768 218.938 156.568C218.938 155.368 220.174 154.576 221.902 154.576ZM224.398 161.692V158.776C225.286 158.308 225.814 157.54 225.814 156.568C225.814 154.888 224.194 153.808 221.902 153.808C219.622 153.808 217.99 154.888 217.99 156.568C217.99 157.54 218.53 158.32 219.43 158.788V161.692H217.03V162.508H226.81V161.692H224.398ZM229.125 160.588V160.264C229.125 159.96 229.153 159.7 229.209 159.484C229.273 159.26 229.377 159.052 229.521 158.86C229.673 158.66 229.877 158.448 230.133 158.224C230.437 157.968 230.677 157.752 230.853 157.576C231.029 157.392 231.153 157.216 231.225 157.048C231.297 156.88 231.333 156.676 231.333 156.436C231.333 156.052 231.209 155.756 230.961 155.548C230.713 155.34 230.353 155.236 229.881 155.236C229.489 155.236 229.141 155.288 228.837 155.392C228.533 155.488 228.241 155.604 227.961 155.74L227.589 154.9C227.909 154.732 228.261 154.592 228.645 154.48C229.037 154.368 229.473 154.312 229.953 154.312C230.713 154.312 231.301 154.5 231.717 154.876C232.133 155.252 232.341 155.764 232.341 156.412C232.341 156.772 232.281 157.08 232.161 157.336C232.049 157.584 231.885 157.816 231.669 158.032C231.461 158.24 231.213 158.464 230.925 158.704C230.653 158.928 230.449 159.124 230.313 159.292C230.177 159.46 230.085 159.628 230.037 159.796C229.989 159.964 229.965 160.16 229.965 160.384V160.588H229.125ZM228.849 162.352C228.849 162.056 228.917 161.848 229.053 161.728C229.197 161.608 229.377 161.548 229.593 161.548C229.793 161.548 229.965 161.608 230.109 161.728C230.253 161.848 230.325 162.056 230.325 162.352C230.325 162.64 230.253 162.848 230.109 162.976C229.965 163.104 229.793 163.168 229.593 163.168C229.377 163.168 229.197 163.104 229.053 162.976C228.917 162.848 228.849 162.64 228.849 162.352Z" fill="black"/>
<path d="M114.754 45.2353C114.669 45.2353 114.627 45.2353 114.542 45.2353C114.076 45.193 113.61 44.8966 113.399 44.4309C113.399 44.4309 113.399 44.3885 113.356 44.3885L103.067 21.5242C99.8918 14.2838 104.041 5.39215 112.34 1.66611C116.32 -0.112224 120.681 -0.493296 124.619 0.64992C128.642 1.79314 131.732 4.37596 133.299 7.93263L143.588 30.7969C143.757 31.178 143.757 31.6014 143.588 31.9825C143.461 32.3212 143.207 32.5753 142.826 32.7446L115.346 45.1083C115.304 45.1083 115.262 45.1507 115.219 45.1507C115.05 45.193 114.923 45.2353 114.754 45.2353ZM130.293 25.8007C128.133 25.8007 125.974 26.2664 123.857 27.1979C117.59 30.0348 114.118 36.3013 115.6 41.721L140.201 30.6699C138.846 28.6375 136.729 27.1132 134.104 26.3511C132.876 26.0124 131.563 25.8007 130.293 25.8007ZM120.004 2.93635C117.845 2.93635 115.685 3.40211 113.568 4.33361C106.709 7.42453 103.237 14.5379 105.82 20.254L112.764 35.7085C113.949 31.0933 117.506 26.8169 122.629 24.5304C126.609 22.7521 130.97 22.371 134.908 23.5142C135.84 23.7683 136.729 24.107 137.533 24.5304L130.589 9.11819C129.404 6.366 126.99 4.37596 123.815 3.48679C122.587 3.10572 121.274 2.93635 120.004 2.93635Z" fill="black"/>
<path d="M127.625 75.0005C127.244 75.0005 126.863 74.8735 126.567 74.5771C125.974 73.9843 125.974 73.0528 126.567 72.46L162.43 36.5969C163.023 36.0041 163.954 36.0041 164.505 36.5969C165.097 37.1897 165.097 38.1212 164.505 38.714L128.684 74.5771C128.387 74.8735 128.006 75.0005 127.625 75.0005Z" fill="black"/>
<path d="M153.072 64.2872C148.923 64.2872 144.774 62.7205 141.598 59.5449C141.005 58.9522 141.005 58.0207 141.598 57.4279L162.43 36.596C163.023 36.0032 163.954 36.0032 164.505 36.596C167.553 39.6445 169.247 43.7093 169.247 48.0704C169.247 52.3893 167.553 56.454 164.505 59.5449C161.371 62.7205 157.222 64.2872 153.072 64.2872ZM144.816 58.4441C150.024 62.5935 157.645 62.2548 162.43 57.4702C164.928 54.9721 166.325 51.6271 166.325 48.1128C166.325 45.0642 165.309 42.185 163.446 39.8562L144.816 58.4441Z" fill="black"/>
</svg>
