<svg width="70" height="75" viewBox="0 0 70 75" fill="none" xmlns="http://www.w3.org/2000/svg">
<path d="M13.7536 45.2353C13.6689 45.2353 13.6266 45.2353 13.5419 45.2353C13.0761 45.193 12.6104 44.8966 12.3987 44.4309C12.3987 44.4309 12.3987 44.3885 12.3563 44.3885L2.06739 21.5242C-1.10821 14.2838 3.04124 5.39215 11.3401 1.66611C15.3202 -0.112224 19.6814 -0.493296 23.6191 0.64992C27.6416 1.79314 30.7325 4.37596 32.2991 7.93263L42.588 30.7969C42.7574 31.178 42.7574 31.6014 42.588 31.9825C42.461 32.3212 42.207 32.5753 41.8259 32.7446L14.3464 45.1083C14.304 45.1083 14.2617 45.1507 14.2194 45.1507C14.05 45.193 13.923 45.2353 13.7536 45.2353ZM29.2929 25.8007C27.1335 25.8007 24.974 26.2664 22.857 27.1979C16.5905 30.0348 13.1185 36.3013 14.6004 41.721L39.2007 30.6699C37.8458 28.6375 35.7287 27.1132 33.1036 26.3511C31.8757 26.0124 30.5631 25.8007 29.2929 25.8007ZM19.0039 2.93635C16.8445 2.93635 14.6851 3.40211 12.568 4.33361C5.70875 7.42453 2.23676 14.5379 4.81958 20.254L11.7636 35.7085C12.9491 31.0933 16.5058 26.8169 21.6291 24.5304C25.6092 22.7521 29.9703 22.371 33.9081 23.5142C34.8396 23.7683 35.7287 24.107 36.5332 24.5304L29.5892 9.11819C28.4037 6.366 25.9902 4.37596 22.8146 3.48679C21.5867 3.10572 20.2742 2.93635 19.0039 2.93635Z" fill="black"/>
<path d="M26.6253 75.0005C26.2442 75.0005 25.8632 74.8735 25.5668 74.5771C24.974 73.9843 24.974 73.0528 25.5668 72.46L61.4299 36.5969C62.0227 36.0041 62.9542 36.0041 63.5046 36.5969C64.0974 37.1897 64.0974 38.1212 63.5046 38.714L27.6838 74.5771C27.3875 74.8735 27.0064 75.0005 26.6253 75.0005Z" fill="black"/>
<path d="M52.0724 64.2872C47.9229 64.2872 43.7735 62.7205 40.5979 59.5449C40.0051 58.9522 40.0051 58.0207 40.5979 57.4279L61.4298 36.596C62.0226 36.0032 62.9541 36.0032 63.5046 36.596C66.5531 39.6445 68.2468 43.7093 68.2468 48.0704C68.2468 52.3893 66.5531 56.454 63.5046 59.5449C60.3713 62.7205 56.2218 64.2872 52.0724 64.2872ZM43.8158 58.4441C49.0238 62.5935 56.6453 62.2548 61.4298 57.4702C63.928 54.9721 65.3252 51.6271 65.3252 48.1128C65.3252 45.0642 64.309 42.185 62.446 39.8562L43.8158 58.4441Z" fill="black"/>
</svg>
