<svg width="24" height="24" viewBox="0 0 24 24" fill="none" xmlns="http://www.w3.org/2000/svg">
<path d="M19.0123 11.1553H12.5926V4.79503C12.6914 4.29814 12.2963 4 11.9012 4C11.5062 4 11.1111 4.29814 11.1111 4.79503V11.2547H4.79012C4.2963 11.1553 4 11.5528 4 11.9503C4 12.3478 4.2963 12.7453 4.79012 12.7453H11.2099V19.205C11.2099 19.6025 11.5062 20 12 20C12.4938 20 12.7901 19.7019 12.7901 19.205V12.7453H19.2099C19.6049 12.7453 20 12.4472 20 11.9503C20 11.4534 19.5062 11.1553 19.0123 11.1553Z" fill="black"/>
</svg>
