<svg width="81" height="100" viewBox="0 0 81 100" fill="none" xmlns="http://www.w3.org/2000/svg">
<path d="M11.909 62.624V77.408H14.021V62.624H11.909ZM6.101 63.664C3.877 63.664 2.229 65.68 2.229 68.912C2.229 72.16 3.877 74.192 6.101 74.192C8.325 74.192 9.973 72.16 9.973 68.912C9.973 65.68 8.325 63.664 6.101 63.664ZM6.101 65.568C7.189 65.568 7.941 66.736 7.941 68.912C7.941 71.104 7.189 72.272 6.101 72.272C5.013 72.272 4.261 71.104 4.261 68.912C4.261 66.736 5.013 65.568 6.101 65.568ZM17.2518 63.968V73.872H24.3398V63.968H17.2518ZM22.2598 65.632V72.208H19.3318V65.632H22.2598ZM26.6278 62.64V77.408H28.7398V62.64H26.6278ZM36.9465 65.792H39.9865V64.048H31.7305V65.792H34.8025V66.608C34.8025 69.12 33.6025 71.824 31.1385 72.928L32.3385 74.608C34.0665 73.824 35.2505 72.208 35.9065 70.288C36.5625 72.064 37.7305 73.504 39.4425 74.24L40.5945 72.576C38.1305 71.552 36.9465 69.008 36.9465 66.608V65.792ZM41.3465 62.64V77.376H43.4585V62.64H41.3465ZM58.9735 69.424C56.5895 68.816 55.5335 67.296 55.5335 65.76H58.4455V64.096H55.5335V62.592H53.4215V64.096H50.5415V65.76H53.4215C53.4215 67.392 52.3815 69.024 50.0135 69.68L50.9895 71.312C52.7015 70.832 53.8695 69.824 54.5095 68.528C55.1815 69.712 56.3495 70.624 58.0135 71.056L58.9735 69.424ZM54.7175 73.568H60.3815V75.552H54.7175V73.568ZM52.6375 77.2H62.4455V71.904H52.6375V77.2ZM60.3335 62.64V66.496H58.1095V68.192H60.3335V71.264H62.4455V62.64H60.3335ZM74.5243 68.048H68.4603V66.528H74.5243V68.048ZM76.6043 63.2H74.5243V64.88H68.4603V63.2H66.3643V69.728H76.6043V63.2ZM78.1883 71.12H64.8443V72.8H70.4123V77.392H72.5243V72.8H78.1883V71.12Z" fill="black"/>
<path d="M6.41409 91.992V92.772H8.75409V94.26H9.73809V86.136H8.75409V91.992H6.41409ZM3.83409 93.564H4.81809V91.08C5.83809 91.008 6.88209 90.912 7.85409 90.732L7.78209 90.024C7.39809 90.084 6.97809 90.12 6.57009 90.156C6.79809 88.8 6.79809 87.792 6.79809 87.192V86.784H1.78209V87.576H5.83809C5.82609 88.188 5.79009 89.064 5.57409 90.24C3.88209 90.36 2.17809 90.372 0.798094 90.384L0.930094 91.188C1.79409 91.188 2.79009 91.176 3.83409 91.128V93.564ZM3.36609 95.844V93.372H2.39409V96.648H10.0021V95.844H3.36609ZM18.1612 91.332C16.5772 90.804 15.5572 89.544 15.5572 88.14V87.72H17.9332V86.928H12.1612V87.72H14.5732V88.14C14.5732 89.688 13.4932 91.08 11.8732 91.644L12.3772 92.424C13.6612 91.968 14.6332 91.008 15.0892 89.784C15.5452 90.852 16.4692 91.704 17.6932 92.1L18.1612 91.332ZM16.8532 96.096C15.2452 96.096 14.2852 95.652 14.2852 94.884C14.2852 94.128 15.2452 93.684 16.8532 93.684C18.4372 93.684 19.4092 94.128 19.4092 94.884C19.4092 95.652 18.4372 96.096 16.8532 96.096ZM16.8532 92.904C14.6452 92.904 13.3012 93.636 13.3012 94.884C13.3012 96.144 14.6452 96.876 16.8532 96.876C19.0372 96.876 20.3932 96.144 20.3932 94.884C20.3932 93.636 19.0372 92.904 16.8532 92.904ZM20.2732 88.848V86.136H19.2892V92.628H20.2732V89.676H21.8692V88.848H20.2732ZM33.9014 86.124V96.9H34.8854V86.124H33.9014ZM26.6894 87.036V94.296H31.7534V87.036H30.7814V89.88H27.6614V87.036H26.6894ZM27.6614 90.66H30.7814V93.492H27.6614V90.66ZM41.9765 86.988C43.7405 86.988 44.7485 87.396 44.7485 88.116C44.7485 88.836 43.7405 89.244 41.9765 89.244C40.2245 89.244 39.2045 88.836 39.2045 88.116C39.2045 87.396 40.2245 86.988 41.9765 86.988ZM41.9765 89.976C44.3525 89.976 45.7565 89.328 45.7565 88.116C45.7565 86.904 44.3525 86.244 41.9765 86.244C39.6125 86.244 38.1965 86.904 38.1965 88.116C38.1965 89.328 39.6125 89.976 41.9765 89.976ZM43.1765 92.484H40.7285V91.416H43.1765V92.484ZM46.8365 91.416V90.624H37.1165V91.416H39.7565V92.484H38.2925V93.228H44.6285V94.188H38.3165V96.768H45.9245V96H39.2765V94.908H45.6005V92.484H44.1485V91.416H46.8365ZM55.1007 96H53.8407V90.312C53.8407 90.008 53.8447 89.736 53.8527 89.496C53.8607 89.248 53.8727 89.008 53.8887 88.776C53.7847 88.888 53.6767 88.992 53.5647 89.088C53.4527 89.184 53.3247 89.292 53.1807 89.412L52.2447 90.168L51.5967 89.352L54.0447 87.432H55.1007V96ZM58.0919 92.352C58.0919 91.856 58.1239 91.368 58.1879 90.888C58.2599 90.408 58.3799 89.956 58.5479 89.532C58.7239 89.1 58.9639 88.72 59.2679 88.392C59.5719 88.056 59.9559 87.796 60.4199 87.612C60.8919 87.42 61.4599 87.324 62.1239 87.324C62.2919 87.324 62.4799 87.332 62.6879 87.348C62.9039 87.356 63.0799 87.38 63.2159 87.42V88.488C63.0639 88.44 62.8959 88.404 62.7119 88.38C62.5359 88.356 62.3599 88.344 62.1839 88.344C61.6319 88.344 61.1759 88.428 60.8159 88.596C60.4559 88.764 60.1719 88.996 59.9639 89.292C59.7559 89.588 59.6039 89.932 59.5079 90.324C59.4119 90.716 59.3519 91.136 59.3279 91.584H59.3999C59.5759 91.304 59.8239 91.068 60.1439 90.876C60.4639 90.676 60.8759 90.576 61.3799 90.576C62.1239 90.576 62.7199 90.808 63.1679 91.272C63.6239 91.728 63.8519 92.376 63.8519 93.216C63.8519 94.112 63.5999 94.82 63.0959 95.34C62.5999 95.86 61.9239 96.12 61.0679 96.12C60.5159 96.12 60.0119 95.984 59.5559 95.712C59.1079 95.44 58.7519 95.028 58.4879 94.476C58.2239 93.916 58.0919 93.208 58.0919 92.352ZM61.0559 95.064C61.5119 95.064 61.8839 94.916 62.1719 94.62C62.4599 94.316 62.6039 93.848 62.6039 93.216C62.6039 92.712 62.4759 92.312 62.2199 92.016C61.9719 91.72 61.5959 91.572 61.0919 91.572C60.7479 91.572 60.4479 91.644 60.1919 91.788C59.9359 91.932 59.7359 92.116 59.5919 92.34C59.4479 92.564 59.3759 92.792 59.3759 93.024C59.3759 93.344 59.4399 93.664 59.5679 93.984C59.6959 94.296 59.8839 94.556 60.1319 94.764C60.3799 94.964 60.6879 95.064 61.0559 95.064ZM68.3043 90.252C68.3043 89.924 68.3843 89.696 68.5443 89.568C68.7043 89.44 68.8963 89.376 69.1203 89.376C69.3443 89.376 69.5363 89.44 69.6963 89.568C69.8643 89.696 69.9483 89.924 69.9483 90.252C69.9483 90.556 69.8643 90.776 69.6963 90.912C69.5363 91.048 69.3443 91.116 69.1203 91.116C68.8963 91.116 68.7043 91.048 68.5443 90.912C68.3843 90.776 68.3043 90.556 68.3043 90.252ZM68.3043 95.292C68.3043 94.98 68.3843 94.76 68.5443 94.632C68.7043 94.504 68.8963 94.44 69.1203 94.44C69.3443 94.44 69.5363 94.504 69.6963 94.632C69.8643 94.76 69.9483 94.98 69.9483 95.292C69.9483 95.604 69.8643 95.828 69.6963 95.964C69.5363 96.1 69.3443 96.168 69.1203 96.168C68.8963 96.168 68.7043 96.1 68.5443 95.964C68.3843 95.828 68.3043 95.604 68.3043 95.292ZM80.1867 91.092C80.1867 91.58 80.1507 92.068 80.0787 92.556C80.0147 93.036 79.8947 93.492 79.7187 93.924C79.5507 94.348 79.3147 94.728 79.0107 95.064C78.7067 95.392 78.3187 95.652 77.8467 95.844C77.3747 96.028 76.8067 96.12 76.1427 96.12C75.9827 96.12 75.7907 96.112 75.5667 96.096C75.3507 96.08 75.1747 96.052 75.0387 96.012V94.944C75.1907 94.992 75.3587 95.028 75.5427 95.052C75.7347 95.076 75.9187 95.088 76.0947 95.088C76.6467 95.088 77.1027 95.008 77.4627 94.848C77.8227 94.68 78.1067 94.448 78.3147 94.152C78.5227 93.856 78.6747 93.516 78.7707 93.132C78.8667 92.74 78.9227 92.32 78.9387 91.872H78.8667C78.6907 92.144 78.4467 92.38 78.1347 92.58C77.8227 92.772 77.4027 92.868 76.8747 92.868C76.1387 92.868 75.5467 92.64 75.0987 92.184C74.6507 91.72 74.4267 91.072 74.4267 90.24C74.4267 89.336 74.6787 88.624 75.1827 88.104C75.6867 87.584 76.3627 87.324 77.2107 87.324C77.7627 87.324 78.2627 87.46 78.7107 87.732C79.1667 88.004 79.5267 88.42 79.7907 88.98C80.0547 89.532 80.1867 90.236 80.1867 91.092ZM77.2227 88.368C76.7667 88.368 76.3947 88.52 76.1067 88.824C75.8187 89.128 75.6747 89.592 75.6747 90.216C75.6747 90.728 75.7987 91.132 76.0467 91.428C76.2947 91.724 76.6707 91.872 77.1747 91.872C77.5267 91.872 77.8307 91.8 78.0867 91.656C78.3507 91.512 78.5507 91.328 78.6867 91.104C78.8307 90.88 78.9027 90.648 78.9027 90.408C78.9027 90.088 78.8387 89.772 78.7107 89.46C78.5907 89.148 78.4027 88.888 78.1467 88.68C77.8987 88.472 77.5907 88.368 77.2227 88.368Z" fill="black"/>
<path d="M53.7738 30.8545H27.9232C27.422 30.8545 27 30.4325 27 29.9315V10.7331C27 4.79959 33.2252 0 40.8485 0C48.4718 0 54.697 4.79959 54.697 10.7331V29.9315C54.697 30.4325 54.2749 30.8545 53.7738 30.8545ZM28.9256 29.0085H52.7978C52.1647 24.5517 47.0473 21.0443 40.8749 21.0443C34.7024 21.0443 29.5323 24.5517 28.9256 29.0085ZM40.8485 19.1983C45.9658 19.1983 50.4501 21.3608 52.8505 24.5781V10.7331C52.8505 5.82807 47.4694 1.84599 40.8485 1.84599C34.2276 1.84599 28.8465 5.82807 28.8465 10.7331V24.6045C31.2469 21.3608 35.7311 19.1983 40.8485 19.1983Z" fill="black"/>
<path d="M40.8485 50.0002C40.3473 50.0002 39.9253 49.5783 39.9253 49.0772V37.1837L35.9422 41.1658C35.5729 41.535 34.9926 41.535 34.6497 41.1658C34.2804 40.7966 34.2804 40.2164 34.6497 39.8472L40.189 34.3093C40.4528 34.0455 40.8485 33.9664 41.1914 34.0983C41.5343 34.2301 41.7717 34.573 41.7717 34.9422V49.0508C41.7717 49.5783 41.3761 50.0002 40.8485 50.0002Z" fill="black"/>
<path d="M46.4671 41.482C46.2297 41.482 45.9923 41.4029 45.8076 41.2183L40.2154 35.6012C39.8462 35.232 39.8462 34.6518 40.2154 34.2826C40.5847 33.9134 41.1651 33.9134 41.508 34.2826L47.1265 39.8997C47.4958 40.2689 47.4958 40.8491 47.1265 41.2183C46.9419 41.4029 46.7045 41.482 46.4671 41.482Z" fill="black"/>
</svg>
