<svg width="20" height="18" viewBox="0 0 20 18" fill="none" xmlns="http://www.w3.org/2000/svg">
<path d="M17.7432 0.192455L17.7158 0.170853C17.6916 0.147024 17.6654 0.125341 17.6375 0.106047L17.5612 0.0726621L17.5181 0.0510599C17.4901 0.0398395 17.4613 0.0306514 17.432 0.0235665C17.4181 0.0205484 17.4043 0.016612 17.3909 0.0117833C17.3509 0.00388058 17.3103 -6.55221e-05 17.2695 8.22781e-07H17.248C17.2066 2.7301e-05 17.1653 0.00397197 17.1247 0.0117833L17.0836 0.02553C17.0541 0.0310464 17.0252 0.0396018 16.9975 0.0510599C16.9821 0.0581376 16.9671 0.0660031 16.9525 0.0746256C16.9273 0.0857645 16.9031 0.0988985 16.88 0.113902C16.8415 0.138308 16.806 0.167324 16.7744 0.200311L0.204124 16.8182C0.139866 16.882 0.0887667 16.9579 0.0537447 17.0416C0.0187226 17.1252 0.000463078 17.215 8.70555e-06 17.3057C-0.000908942 17.4889 0.0707532 17.665 0.19923 17.7952C0.327708 17.9254 0.502476 17.9991 0.685087 18C0.867699 18.0009 1.0432 17.929 1.17297 17.8001L7.65153 11.2998C9.13167 12.5623 11.0426 13.1988 12.9814 13.0751C14.9202 12.9513 16.7353 12.077 18.0441 10.6365C19.3529 9.19604 20.053 7.3019 19.9969 5.3535C19.9407 3.4051 19.1327 1.5547 17.7432 0.192455ZM16.7646 9.85447C15.6995 10.9222 14.2801 11.5592 12.7769 11.6439C11.2737 11.7287 9.79204 11.2553 8.6145 10.314L17.2265 1.67318C18.1652 2.85476 18.6379 4.34155 18.5546 5.85029C18.4712 7.35902 17.8375 8.78426 16.7744 9.85447H16.7646Z" fill="#195BFF"/>
</svg>
