<svg width="24" height="24" viewBox="0 0 24 24" fill="none" xmlns="http://www.w3.org/2000/svg">
<path d="M17.9008 8.38271L17.8862 8.36805C17.8715 8.35339 17.8422 8.33873 17.8275 8.32406C17.7982 8.3094 17.7835 8.29474 17.7542 8.29474C17.7395 8.29474 17.7395 8.28007 17.7249 8.28007C17.7102 8.26541 17.6809 8.26541 17.6662 8.26541C17.6515 8.26541 17.6515 8.26541 17.6369 8.25075C17.6076 8.25075 17.5782 8.23608 17.5489 8.23608C17.5489 8.23608 17.5489 8.23608 17.5342 8.23608C17.5342 8.23608 17.5342 8.23608 17.5196 8.23608C17.4903 8.23608 17.4609 8.23608 17.4316 8.25075C17.4169 8.25075 17.4169 8.25075 17.4023 8.26541C17.3876 8.26541 17.3583 8.28007 17.3436 8.28007C17.329 8.28007 17.3143 8.29474 17.3143 8.29474C17.2996 8.3094 17.2703 8.3094 17.2556 8.32406C17.2263 8.33873 17.197 8.36805 17.1823 8.38271L4.76273 20.8023C4.55744 21.0076 4.55744 21.3302 4.76273 21.5208C4.86537 21.6234 4.99734 21.6674 5.1293 21.6674C5.26127 21.6674 5.39324 21.6234 5.49588 21.5208L10.3493 16.6673C11.3611 17.5031 12.6075 17.9723 13.9418 17.9723C15.4374 17.9723 16.8451 17.3858 17.9155 16.3301C20.0856 14.1306 20.0856 10.5675 17.9008 8.38271ZM17.1677 15.5969C16.3025 16.4621 15.1442 16.9459 13.9271 16.9459C12.8714 16.9459 11.8743 16.594 11.0678 15.9488L17.5196 9.49711C18.9419 11.286 18.8393 13.9253 17.1677 15.5969Z" fill="white"/>
</svg>
