<svg width="24" height="24" viewBox="0 0 24 24" fill="none" xmlns="http://www.w3.org/2000/svg">
<path class="color" d="M10.6424 15.7144C6.9766 15.7144 4 12.7378 4 9.07205C4 5.40629 6.9766 2.42969 10.6424 2.42969C14.3081 2.42969 17.2847 5.40629 17.2847 9.07205C17.2847 12.7378 14.3081 15.7144 10.6424 15.7144ZM10.6424 3.4561C7.54846 3.4561 5.02641 5.97815 5.02641 9.07205C5.02641 12.166 7.54846 14.688 10.6424 14.688C13.7363 14.688 16.2583 12.166 16.2583 9.07205C16.2583 5.97815 13.7363 3.4561 10.6424 3.4561Z" fill="white"/>
<path class="color" d="M10.3198 15.9637C12.314 17.9579 15.5399 17.9579 17.5341 15.9637C19.5282 13.9696 19.5282 10.7437 17.5341 8.74951L10.3198 15.9637Z" fill="white"/>
<path class="color" d="M17.9008 8.38296L17.8861 8.3683C17.8715 8.35363 17.8422 8.33897 17.8275 8.32431C17.7982 8.30964 17.7835 8.29498 17.7542 8.29498C17.7395 8.29498 17.7395 8.28032 17.7248 8.28032C17.7102 8.26565 17.6809 8.26565 17.6662 8.26565C17.6515 8.26565 17.6515 8.26565 17.6369 8.25099C17.6075 8.25099 17.5782 8.23633 17.5489 8.23633C17.5489 8.23633 17.5489 8.23633 17.5342 8.23633C17.5342 8.23633 17.5342 8.23633 17.5196 8.23633C17.4902 8.23633 17.4609 8.23633 17.4316 8.25099C17.4169 8.25099 17.4169 8.25099 17.4023 8.26565C17.3876 8.26565 17.3583 8.28032 17.3436 8.28032C17.3289 8.28032 17.3143 8.29498 17.3143 8.29498C17.2996 8.30964 17.2703 8.30964 17.2556 8.32431C17.2263 8.33897 17.197 8.3683 17.1823 8.38296L4.76271 20.8026C4.55743 21.0078 4.55743 21.3304 4.76271 21.5211C4.86535 21.6237 4.99732 21.6677 5.12929 21.6677C5.26126 21.6677 5.39322 21.6237 5.49586 21.5211L10.3493 16.6676C11.3611 17.5034 12.6074 17.9726 13.9418 17.9726C15.4374 17.9726 16.8451 17.3861 17.9155 16.3303C20.0856 14.1309 20.0856 10.5678 17.9008 8.38296ZM17.1677 15.5972C16.3025 16.4623 15.1441 16.9462 13.9271 16.9462C12.8714 16.9462 11.8743 16.5943 11.0678 15.9491L17.5196 9.49735C18.9419 11.2862 18.8392 13.9256 17.1677 15.5972Z" fill="white"/>
</svg>
