<svg width="24" height="24" viewBox="0 0 24 24" fill="none" xmlns="http://www.w3.org/2000/svg">
<path d="M11.9612 2.80005L14.8501 8.80005L21.1261 9.90005L16.5436 14.6L17.6394 21.2001L11.9612 18.1L6.28301 21.2001L7.37881 14.5L2.79639 9.80005L9.17193 8.80005L11.9612 2.80005Z" fill="black"/>
<path d="M17.6398 22C17.5401 22 17.3409 22 17.2413 21.9L11.9615 18.9L6.6818 21.8C6.38294 21.9 6.08409 21.9 5.88485 21.8C5.68562 21.6 5.48638 21.3 5.586 21L6.58218 14.7L2.29861 10.2C1.99976 10.1 1.90014 9.8 1.99976 9.5C2.09938 9.3 2.39823 9.1 2.69708 9L8.67415 8.1L11.3638 2.4C11.4635 2.2 11.6627 2 11.9615 2C12.2604 2 12.5592 2.2 12.6589 2.4L15.3485 8.1L21.3256 9C21.6245 9 21.8237 9.2 21.9233 9.5C22.0229 9.8 21.9233 10.1 21.7241 10.3L17.3409 14.7L18.3371 21C18.3371 21.3 18.2375 21.6 18.0382 21.8C17.9386 22 17.7394 22 17.6398 22ZM11.9615 17.3C12.0612 17.3 12.2604 17.3 12.36 17.4L16.6436 19.8L15.8466 14.7C15.8466 14.5 15.8466 14.2 16.0459 14L19.6321 10.4L14.7508 9.6C14.452 9.6 14.2528 9.4 14.1531 9.2L11.9615 4.6L9.76995 9.2C9.67033 9.4 9.4711 9.6 9.27186 9.6L4.39059 10.3L7.87721 14C8.07645 14.2 8.07645 14.4 8.07645 14.7L7.17988 19.8L11.4635 17.4C11.6627 17.3 11.7623 17.3 11.9615 17.3Z" fill="black"/>
</svg>
