<svg width="21" height="20" viewBox="0 0 21 20" fill="none" xmlns="http://www.w3.org/2000/svg">
<path d="M16.6398 20C16.5401 20 16.3409 20 16.2413 19.9L10.9615 16.9L5.6818 19.8C5.38294 19.9 5.08409 19.9 4.88485 19.8C4.68562 19.6 4.48638 19.3 4.586 19L5.58218 12.7L1.29861 8.2C0.999759 8.1 0.900141 7.8 0.999759 7.5C1.09938 7.3 1.39823 7.1 1.69708 7L7.67415 6.1L10.3638 0.4C10.4635 0.2 10.6627 0 10.9615 0C11.2604 0 11.5592 0.2 11.6589 0.4L14.3485 6.1L20.3256 7C20.6245 7 20.8237 7.2 20.9233 7.5C21.0229 7.8 20.9233 8.1 20.7241 8.3L16.3409 12.7L17.3371 19C17.3371 19.3 17.2375 19.6 17.0382 19.8C16.9386 20 16.7394 20 16.6398 20ZM10.9615 15.3C11.0612 15.3 11.2604 15.3 11.36 15.4L15.6436 17.8L14.8466 12.7C14.8466 12.5 14.8466 12.2 15.0459 12L18.6321 8.4L13.7508 7.6C13.452 7.6 13.2528 7.4 13.1531 7.2L10.9615 2.6L8.76995 7.2C8.67033 7.4 8.4711 7.6 8.27186 7.6L3.39059 8.3L6.87721 12C7.07645 12.2 7.07645 12.4 7.07645 12.7L6.17989 17.8L10.4635 15.4C10.6627 15.3 10.7623 15.3 10.9615 15.3Z" fill="black"/>
</svg>
