<svg width="215" height="42" viewBox="0 0 215 42" fill="none" xmlns="http://www.w3.org/2000/svg">
<path fill-rule="evenodd" clip-rule="evenodd" d="M197 1H1V41H197V24.8261L214.5 19.5L197 17.5978V1Z" fill="white"/>
<path d="M1 1V0.5C0.723858 0.5 0.5 0.723858 0.5 1H1ZM197 1H197.5C197.5 0.723858 197.276 0.5 197 0.5V1ZM1 41H0.5C0.5 41.2761 0.723858 41.5 1 41.5V41ZM197 41V41.5C197.276 41.5 197.5 41.2761 197.5 41H197ZM197 24.8261L196.854 24.3477C196.644 24.4118 196.5 24.606 196.5 24.8261H197ZM214.5 19.5L214.646 19.9783C214.873 19.9092 215.02 19.6897 214.998 19.4533C214.976 19.2168 214.79 19.0286 214.554 19.0029L214.5 19.5ZM197 17.5978H196.5C196.5 17.8531 196.692 18.0673 196.946 18.0949L197 17.5978ZM1 1.5H197V0.5H1V1.5ZM1.5 41V1H0.5V41H1.5ZM197 40.5H1V41.5H197V40.5ZM196.5 24.8261V41H197.5V24.8261H196.5ZM197.146 25.3044L214.646 19.9783L214.354 19.0217L196.854 24.3477L197.146 25.3044ZM214.554 19.0029L197.054 17.1008L196.946 18.0949L214.446 19.9971L214.554 19.0029ZM196.5 1V17.5978H197.5V1H196.5Z" fill="black"/>
</svg>
