<svg width="72" height="82" viewBox="0 0 72 82" fill="none" xmlns="http://www.w3.org/2000/svg">
<path d="M70.1837 38.1984L52.0063 26.7755C53.8439 23.1002 54.3406 18.9284 53.4466 14.8558C52.4036 10.237 49.5727 6.26377 45.5499 3.73086C41.527 1.19794 36.7591 0.403295 32.1403 1.44626C27.5214 2.53889 23.5482 5.3698 21.0153 9.39267C20.9656 9.49201 20.916 9.59134 20.8663 9.69067C20.8166 9.74033 20.8166 9.83966 20.8166 9.88933C20.8166 9.93899 20.767 9.98866 20.767 9.98866C20.767 10.088 20.767 10.1377 20.767 10.237C20.767 10.2866 20.767 10.2866 20.767 10.3363C20.767 10.386 20.767 10.4356 20.767 10.4356C16.9924 13.3659 14.5092 17.5874 13.8139 22.3056C13.0689 27.2721 14.2609 32.1889 17.1911 36.2615C20.171 40.2844 24.4919 42.9663 29.4584 43.7112C30.4517 43.8602 31.3953 43.9596 32.3886 43.9596C36.3121 43.9596 40.186 42.7179 43.4143 40.334C46.9405 37.7514 49.4237 34.0762 50.5164 29.9044L68.3461 41.1287C68.6441 41.3273 68.9421 41.377 69.2898 41.377C69.8857 41.377 70.4321 41.079 70.7797 40.5823C71.2267 39.7877 70.9784 38.7447 70.1837 38.1984ZM32.8853 4.87315C36.6101 4.02885 40.484 4.67449 43.7122 6.71076C46.9405 8.74703 49.1754 11.9256 50.0694 15.6505C50.8144 18.829 50.417 22.0573 49.0761 24.9378L36.6101 17.0908L24.9885 9.79C26.9751 7.35641 29.7564 5.61813 32.8853 4.87315ZM41.3283 37.5528C38.0504 39.9367 33.9779 40.93 29.955 40.334C25.9321 39.6884 22.3563 37.5528 19.9723 34.2749C17.5884 30.997 16.5951 26.9244 17.2408 22.9016C17.8864 18.8787 20.022 15.3028 23.2999 12.9189L47.2881 28.0171C46.6425 31.8413 44.5069 35.2185 41.3283 37.5528Z" fill="black"/>
<path d="M62.9324 80.2152C61.9887 80.2152 61.1941 79.4205 61.1941 78.4769C61.1941 62.8324 48.4798 50.1182 32.8353 50.1182C17.1908 50.1182 4.47656 62.8324 4.47656 78.4769C4.47656 79.4205 3.68191 80.2152 2.73828 80.2152C1.79464 80.2152 1 79.4205 1 78.4769C1 60.9451 15.2539 46.6416 32.8353 46.6416C50.4168 46.6416 64.6706 60.8955 64.6706 78.4769C64.6706 79.4205 63.876 80.2152 62.9324 80.2152Z" fill="black"/>
</svg>
